<?xml version="1.0" encoding="UTF-8" standalone="no"?>
<svg
   xmlns:dc="http://purl.org/dc/elements/1.1/"
   xmlns:cc="http://creativecommons.org/ns#"
   xmlns:rdf="http://www.w3.org/1999/02/22-rdf-syntax-ns#"
   xmlns:svg="http://www.w3.org/2000/svg"
   xmlns="http://www.w3.org/2000/svg"
   xmlns:sodipodi="http://sodipodi.sourceforge.net/DTD/sodipodi-0.dtd"
   xmlns:inkscape="http://www.inkscape.org/namespaces/inkscape"
   version="1.0"
   id="svg6237"
   height="32"
   width="32"
   inkscape:version="0.92.5 (2060ec1f9f, 2020-04-08)"
   sodipodi:docname="flathub-logo.svg"
   viewBox="0 0 32 32">
  <sodipodi:namedview
     pagecolor="#ffffff"
     bordercolor="#666666"
     borderopacity="1"
     objecttolerance="10"
     gridtolerance="10"
     guidetolerance="10"
     inkscape:pageopacity="0"
     inkscape:pageshadow="2"
     inkscape:window-width="1308"
     inkscape:window-height="704"
     inkscape:document-units="px"
     id="namedview12"
     showgrid="false"
     inkscape:zoom="16"
     inkscape:cx="12.601969"
     inkscape:cy="11.397266"
     inkscape:window-x="58"
     inkscape:window-y="27"
     inkscape:window-maximized="1"
     inkscape:current-layer="svg6237">
    <inkscape:grid
       type="xygrid"
       id="grid9144" />
  </sodipodi:namedview>
  <defs
     id="defs6239" />
  <metadata
     id="metadata6242">
    <rdf:RDF>
      <cc:Work
         rdf:about="">
        <dc:format>image/svg+xml</dc:format>
        <dc:type
           rdf:resource="http://purl.org/dc/dcmitype/StillImage" />
        <dc:title />
      </cc:Work>
    </rdf:RDF>
  </metadata>
  <g
     style="display:inline;fill:#ff8080;fill-opacity:1"
     id="g10674"
     transform="matrix(0.16491994,0,0,0.16491994,-124.76682,-129.31174)">
    <path
       style="color:#000000;clip-rule:nonzero;display:inline;overflow:visible;visibility:visible;opacity:1;isolation:auto;mix-blend-mode:normal;color-interpolation:sRGB;color-interpolation-filters:linearRGB;solid-color:#000000;solid-opacity:1;fill:#ff8080;fill-opacity:1;fill-rule:nonzero;stroke:#204a87;stroke-width:12;stroke-linecap:square;stroke-linejoin:miter;stroke-miterlimit:4;stroke-dasharray:none;stroke-dashoffset:0;stroke-opacity:1;marker:none;marker-start:none;marker-mid:none;marker-end:none;paint-order:normal;color-rendering:auto;image-rendering:auto;shape-rendering:auto;text-rendering:auto;enable-background:accumulate"
       d="m 856.01397,830.22631 -66.76365,43.44891 v 34.93973 l 33.38182,21.72315 33.37926,-21.72315 v -0.005 l 0.003,0.003 33.38183,21.72574 33.37925,-21.72315 v -34.93979 z"
       id="path10642"
       inkscape:connector-curvature="0"
       sodipodi:nodetypes="ccccccccccc" />
    <g
       id="g10652"
       transform="matrix(0.50221552,0,0,0.50636711,429.63205,432.90461)"
       style="stroke-width:0.75573969;fill:#ff8080;fill-opacity:1">
      <rect
         transform="matrix(0.84019328,0.54228706,-0.84019328,0.54228706,0,0)"
         ry="0"
         rx="0"
         y="279.42584"
         x="1289.9076"
         height="79.110413"
         width="79.110413"
         id="rect10644"
         style="color:#000000;clip-rule:nonzero;display:inline;overflow:visible;visibility:visible;opacity:1;isolation:auto;mix-blend-mode:normal;color-interpolation:sRGB;color-interpolation-filters:linearRGB;solid-color:#000000;solid-opacity:1;fill:#ff8080;fill-opacity:1;fill-rule:nonzero;stroke:#000000;stroke-width:3.16674447;stroke-linecap:square;stroke-linejoin:round;stroke-miterlimit:4;stroke-dasharray:none;stroke-dashoffset:0;stroke-opacity:1;marker:none;marker-start:none;marker-mid:none;marker-end:none;paint-order:normal;color-rendering:auto;image-rendering:auto;shape-rendering:auto;text-rendering:auto;enable-background:accumulate" />
      <rect
         style="color:#000000;clip-rule:nonzero;display:inline;overflow:visible;visibility:visible;opacity:1;isolation:auto;mix-blend-mode:normal;color-interpolation:sRGB;color-interpolation-filters:linearRGB;solid-color:#000000;solid-opacity:1;fill:#ff8080;fill-opacity:1;fill-rule:nonzero;stroke:#204a87;stroke-width:3.16674447;stroke-linecap:square;stroke-linejoin:round;stroke-miterlimit:4;stroke-dasharray:none;stroke-dashoffset:0;stroke-opacity:1;marker:none;marker-start:none;marker-mid:none;marker-end:none;paint-order:normal;color-rendering:auto;image-rendering:auto;shape-rendering:auto;text-rendering:auto;enable-background:accumulate"
         id="rect10646"
         width="79.110413"
         height="79.110413"
         x="1226.2882"
         y="215.8064"
         rx="0"
         ry="0"
         transform="matrix(0.84019328,0.54228706,-0.84019328,0.54228706,0,0)" />
      <path
         inkscape:connector-curvature="0"
         id="path10648"
         d="m 915.46811,824.92983 -5e-5,68.99997 -66.46803,42.90055 5e-5,-68.99997 z"
         style="color:#000000;clip-rule:nonzero;display:inline;overflow:visible;visibility:visible;opacity:1;isolation:auto;mix-blend-mode:normal;color-interpolation:sRGB;color-interpolation-filters:linearRGB;solid-color:#000000;solid-opacity:1;fill:#ff8080;fill-opacity:1;fill-rule:nonzero;stroke:#000000;stroke-width:3.02295876;stroke-linecap:square;stroke-linejoin:round;stroke-miterlimit:4;stroke-dasharray:none;stroke-dashoffset:0;stroke-opacity:1;marker:none;marker-start:none;marker-mid:none;marker-end:none;paint-order:normal;color-rendering:auto;image-rendering:auto;shape-rendering:auto;text-rendering:auto;enable-background:accumulate" />
      <path
         style="color:#000000;clip-rule:nonzero;display:inline;overflow:visible;visibility:visible;opacity:1;isolation:auto;mix-blend-mode:normal;color-interpolation:sRGB;color-interpolation-filters:linearRGB;solid-color:#000000;solid-opacity:1;fill:#ff8080;fill-opacity:1;fill-rule:nonzero;stroke:#000000;stroke-width:3.02295876;stroke-linecap:square;stroke-linejoin:round;stroke-miterlimit:4;stroke-dasharray:none;stroke-dashoffset:0;stroke-opacity:1;marker:none;marker-start:none;marker-mid:none;marker-end:none;paint-order:normal;color-rendering:auto;image-rendering:auto;shape-rendering:auto;text-rendering:auto;enable-background:accumulate"
         d="m 783.00003,824.92983 5e-5,68.99997 66.46803,42.90055 -5e-5,-68.99997 z"
         id="path10650"
         inkscape:connector-curvature="0" />
    </g>
    <g
       id="g10662"
       transform="matrix(0.50221552,0,0,0.50636711,463.01368,454.62849)"
       style="stroke-width:0.75573969;fill:#ff8080;fill-opacity:1">
      <rect
         style="color:#000000;clip-rule:nonzero;display:inline;overflow:visible;visibility:visible;opacity:1;isolation:auto;mix-blend-mode:normal;color-interpolation:sRGB;color-interpolation-filters:linearRGB;solid-color:#000000;solid-opacity:1;fill:#ff8080;fill-opacity:1;fill-rule:nonzero;stroke:#204a87;stroke-width:3.16674447;stroke-linecap:square;stroke-linejoin:round;stroke-miterlimit:4;stroke-dasharray:none;stroke-dashoffset:0;stroke-opacity:1;marker:none;marker-start:none;marker-mid:none;marker-end:none;paint-order:normal;color-rendering:auto;image-rendering:auto;shape-rendering:auto;text-rendering:auto;enable-background:accumulate"
         id="rect10654"
         width="79.110413"
         height="79.110413"
         x="1289.9076"
         y="279.42584"
         rx="0"
         ry="0"
         transform="matrix(0.84019328,0.54228706,-0.84019328,0.54228706,0,0)" />
      <rect
         transform="matrix(0.84019328,0.54228706,-0.84019328,0.54228706,0,0)"
         ry="0"
         rx="0"
         y="215.8064"
         x="1226.2882"
         height="79.110413"
         width="79.110413"
         id="rect10656"
         style="color:#000000;clip-rule:nonzero;display:inline;overflow:visible;visibility:visible;opacity:1;isolation:auto;mix-blend-mode:normal;color-interpolation:sRGB;color-interpolation-filters:linearRGB;solid-color:#000000;solid-opacity:1;fill:#ff8080;fill-opacity:1;fill-rule:nonzero;stroke:#204a87;stroke-width:3.16674447;stroke-linecap:square;stroke-linejoin:round;stroke-miterlimit:4;stroke-dasharray:none;stroke-dashoffset:0;stroke-opacity:1;marker:none;marker-start:none;marker-mid:none;marker-end:none;paint-order:normal;color-rendering:auto;image-rendering:auto;shape-rendering:auto;text-rendering:auto;enable-background:accumulate" />
      <path
         style="color:#000000;clip-rule:nonzero;display:inline;overflow:visible;visibility:visible;opacity:1;isolation:auto;mix-blend-mode:normal;color-interpolation:sRGB;color-interpolation-filters:linearRGB;solid-color:#000000;solid-opacity:1;fill:#ff8080;fill-opacity:1;fill-rule:nonzero;stroke:#204a87;stroke-width:3.02295876;stroke-linecap:square;stroke-linejoin:round;stroke-miterlimit:4;stroke-dasharray:none;stroke-dashoffset:0;stroke-opacity:1;marker:none;marker-start:none;marker-mid:none;marker-end:none;paint-order:normal;color-rendering:auto;image-rendering:auto;shape-rendering:auto;text-rendering:auto;enable-background:accumulate"
         d="m 915.46811,824.92983 -5e-5,68.99997 -66.46803,42.90055 5e-5,-68.99997 z"
         id="path10658"
         inkscape:connector-curvature="0" />
      <path
         inkscape:connector-curvature="0"
         id="path10660"
         d="m 783.00003,824.92983 5e-5,68.99997 66.46803,42.90055 -5e-5,-68.99997 z"
         style="color:#000000;clip-rule:nonzero;display:inline;overflow:visible;visibility:visible;opacity:1;isolation:auto;mix-blend-mode:normal;color-interpolation:sRGB;color-interpolation-filters:linearRGB;solid-color:#000000;solid-opacity:1;fill:#ff8080;fill-opacity:1;fill-rule:nonzero;stroke:#204a87;stroke-width:3.02295876;stroke-linecap:square;stroke-linejoin:round;stroke-miterlimit:4;stroke-dasharray:none;stroke-dashoffset:0;stroke-opacity:1;marker:none;marker-start:none;marker-mid:none;marker-end:none;paint-order:normal;color-rendering:auto;image-rendering:auto;shape-rendering:auto;text-rendering:auto;enable-background:accumulate" />
    </g>
    <g
       transform="matrix(0.50221552,0,0,0.50636711,396.25042,454.62849)"
       id="g10672"
       style="stroke-width:0.75573969;fill:#ff8080;fill-opacity:1">
      <rect
         transform="matrix(0.84019328,0.54228706,-0.84019328,0.54228706,0,0)"
         ry="0"
         rx="0"
         y="279.42584"
         x="1289.9076"
         height="79.110413"
         width="79.110413"
         id="rect10664"
         style="color:#000000;clip-rule:nonzero;display:inline;overflow:visible;visibility:visible;opacity:1;isolation:auto;mix-blend-mode:normal;color-interpolation:sRGB;color-interpolation-filters:linearRGB;solid-color:#000000;solid-opacity:1;fill:#ff8080;fill-opacity:1;fill-rule:nonzero;stroke:#204a87;stroke-width:3.16674447;stroke-linecap:square;stroke-linejoin:round;stroke-miterlimit:4;stroke-dasharray:none;stroke-dashoffset:0;stroke-opacity:1;marker:none;marker-start:none;marker-mid:none;marker-end:none;paint-order:normal;color-rendering:auto;image-rendering:auto;shape-rendering:auto;text-rendering:auto;enable-background:accumulate" />
      <rect
         style="color:#000000;clip-rule:nonzero;display:inline;overflow:visible;visibility:visible;opacity:1;isolation:auto;mix-blend-mode:normal;color-interpolation:sRGB;color-interpolation-filters:linearRGB;solid-color:#000000;solid-opacity:1;fill:#ff8080;fill-opacity:1;fill-rule:nonzero;stroke:#204a87;stroke-width:3.16674447;stroke-linecap:square;stroke-linejoin:round;stroke-miterlimit:4;stroke-dasharray:none;stroke-dashoffset:0;stroke-opacity:1;marker:none;marker-start:none;marker-mid:none;marker-end:none;paint-order:normal;color-rendering:auto;image-rendering:auto;shape-rendering:auto;text-rendering:auto;enable-background:accumulate"
         id="rect10666"
         width="79.110413"
         height="79.110413"
         x="1226.2882"
         y="215.8064"
         rx="0"
         ry="0"
         transform="matrix(0.84019328,0.54228706,-0.84019328,0.54228706,0,0)" />
      <path
         inkscape:connector-curvature="0"
         id="path10668"
         d="m 915.46811,824.92983 -5e-5,68.99997 -66.46803,42.90055 5e-5,-68.99997 z"
         style="color:#000000;clip-rule:nonzero;display:inline;overflow:visible;visibility:visible;opacity:1;isolation:auto;mix-blend-mode:normal;color-interpolation:sRGB;color-interpolation-filters:linearRGB;solid-color:#000000;solid-opacity:1;fill:#ff8080;fill-opacity:1;fill-rule:nonzero;stroke:#204a87;stroke-width:3.02295876;stroke-linecap:square;stroke-linejoin:round;stroke-miterlimit:4;stroke-dasharray:none;stroke-dashoffset:0;stroke-opacity:1;marker:none;marker-start:none;marker-mid:none;marker-end:none;paint-order:normal;color-rendering:auto;image-rendering:auto;shape-rendering:auto;text-rendering:auto;enable-background:accumulate" />
      <path
         style="color:#000000;clip-rule:nonzero;display:inline;overflow:visible;visibility:visible;opacity:1;isolation:auto;mix-blend-mode:normal;color-interpolation:sRGB;color-interpolation-filters:linearRGB;solid-color:#000000;solid-opacity:1;fill:#ff8080;fill-opacity:1;fill-rule:nonzero;stroke:#204a87;stroke-width:3.02295876;stroke-linecap:square;stroke-linejoin:round;stroke-miterlimit:4;stroke-dasharray:none;stroke-dashoffset:0;stroke-opacity:1;marker:none;marker-start:none;marker-mid:none;marker-end:none;paint-order:normal;color-rendering:auto;image-rendering:auto;shape-rendering:auto;text-rendering:auto;enable-background:accumulate"
         d="m 783.00003,824.92983 5e-5,68.99997 66.46803,42.90055 -5e-5,-68.99997 z"
         id="path10670"
         inkscape:connector-curvature="0" />
    </g>
  </g>
  <path
     style="stroke-width:0.0625;fill:#550000;fill-opacity:1"
     d="m 7.6388584,23.141852 -3.2306393,-2.10263 3.03e-4,-3.383869 3.03e-4,-3.383869 5.9506209,-3.872768 c 3.272841,-2.1300226 5.994132,-3.8727681 6.047312,-3.8727681 0.05318,0 2.775123,1.7427455 6.048761,3.8727681 l 5.952069,3.872768 3.12e-4,3.383477 3.13e-4,3.383478 -3.199908,2.08304 c -1.759949,1.145672 -3.243543,2.082806 -3.296875,2.082519 -0.05333,-3.12e-4 -1.313373,-0.792746 -2.800092,-1.761021 l -2.703126,-1.7605 -2.690218,1.750634 c -1.479621,0.962848 -2.725832,1.764299 -2.769361,1.781002 -0.04353,0.0167 -1.5329293,-0.915814 -3.3097809,-2.072261 z M 10.845719,20.934831 V 18.191927 L 8.2939167,16.530724 C 6.8904253,15.617062 5.6951128,14.851484 5.6376667,14.82944 5.5410403,14.792361 5.533284,14.994617 5.5340856,17.530422 l 8.662e-4,2.741062 2.6085086,1.699667 c 1.4346796,0.934816 2.6296026,1.701223 2.6553836,1.703125 0.02578,0.0019 0.04687,-1.230849 0.04687,-2.739445 z m 10.985025,-0.01311 -0.01628,-2.756012 -2.582139,-1.681488 c -1.420176,-0.924818 -2.608457,-1.681487 -2.640625,-1.681487 -0.03546,0 -0.05767,1.076755 -0.05642,2.734375 l 0.0021,2.734375 2.607309,1.698295 c 1.43402,0.934063 2.628696,1.700469 2.654835,1.703125 0.02614,0.0027 0.0402,-1.235376 0.03125,-2.751183 z m -8.266275,-4.645547 c 1.409375,-0.917089 2.570618,-1.690328 2.580541,-1.718309 0.01701,-0.04797 -4.96659,-3.328335 -5.18213,-3.411046 -0.06701,-0.02571 -0.9793616,0.531962 -2.7183878,1.661626 -1.4396377,0.935182 -2.6252558,1.706236 -2.6347069,1.713452 -0.039193,0.02993 5.2723877,3.459842 5.3296837,3.441605 0.03437,-0.01094 1.215625,-0.770239 2.625,-1.687328 z m 10.980876,0.02285 c 1.385519,-0.899425 2.551934,-1.667319 2.592035,-1.706429 0.05493,-0.05358 -0.568428,-0.487223 -2.527971,-1.758611 -1.430485,-0.928125 -2.644807,-1.6875 -2.698493,-1.6875 -0.106662,0 -5.254029,3.329698 -5.250571,3.396458 0.0039,0.07486 5.215199,3.437532 5.29125,3.414248 0.04104,-0.01257 1.208232,-0.758741 2.59375,-1.658166 z m -5.394475,-3.64501 c 1.456895,-0.949454 2.707052,-1.72628 2.778125,-1.72628 0.09788,0 0.111675,-0.01755 0.05687,-0.07235 -0.0548,-0.0548 -0.09476,-0.05375 -0.164755,0.0043 -0.06748,0.056 -0.125918,0.05875 -0.216657,0.01019 -0.06834,-0.03657 -1.265434,-0.810542 -2.660211,-1.719929 l -2.535958,-1.6534313 -2.63143,1.7143682 c -2.163199,1.4093161 -2.65186,1.7034351 -2.746242,1.6529231 -0.07576,-0.04054 -0.127985,-0.04013 -0.153542,0.0012 -0.0213,0.03447 -1.54e-4,0.06267 0.047,0.06267 0.04715,0 1.293341,0.786724 2.769314,1.748276 1.475972,0.961552 2.711711,1.738378 2.746086,1.72628 0.03438,-0.0121 1.254505,-0.798822 2.711401,-1.748276 z"
     id="path24"
     inkscape:connector-curvature="0" />
  <path
     style="fill:#550000;fill-opacity:1;stroke-width:0.0625"
     d="M 9.949004,24.587892 C 9.427906,24.263478 7.9750842,23.331041 6.7205111,22.515809 l -2.281042,-1.48224 8.044e-4,-3.381042 8.044e-4,-3.381043 1.9210706,-1.247559 C 10.423201,10.386643 15.184633,7.309599 15.777528,6.9392977 l 0.619308,-0.386799 0.286942,0.1676578 c 0.393623,0.2299914 3.629945,2.3148474 8.020379,5.1667715 l 3.670937,2.384556 9.37e-4,3.382315 9.38e-4,3.382317 -1.859375,1.207374 c -1.022657,0.664056 -2.47198,1.598074 -3.220719,2.075594 l -1.361343,0.86822 -0.294907,-0.170863 c -0.378836,-0.219492 -1.242718,-0.771267 -3.434392,-2.193604 -0.970468,-0.629806 -1.778583,-1.145103 -1.795811,-1.145103 -0.01723,0 -1.149772,0.725308 -2.516764,1.611796 -2.585846,1.676911 -2.917909,1.888204 -2.967448,1.888204 -0.01636,0 -0.456108,-0.265429 -0.977206,-0.589842 z m 0.894914,-1.300783 c 0.02167,-0.214844 0.03094,-1.455485 0.0206,-2.756981 l -0.0188,-2.366355 -1.6249999,-1.057187 c -2.8687606,-1.866348 -3.5970858,-2.321349 -3.6427749,-2.27572 -0.024599,0.02457 -0.052868,1.260309 -0.062819,2.746096 l -0.018095,2.701429 2.3305945,1.511407 c 1.2818269,0.831273 2.4571573,1.593938 2.6118443,1.694811 0.154688,0.100872 0.300105,0.185592 0.323151,0.188265 0.02304,0.0027 0.05963,-0.170922 0.0813,-0.385765 z m 10.992897,0.0065 c 0.05199,-0.49746 0.05135,-3.142312 -0.001,-4.287622 l -0.04074,-0.89054 -0.474657,-0.304372 c -0.26106,-0.167405 -1.4152,-0.912756 -2.564753,-1.656336 -1.149553,-0.743579 -2.108827,-1.351962 -2.131721,-1.351962 -0.08849,0 -0.121932,0.856231 -0.121932,3.121737 v 2.3534 l 2.328125,1.51094 c 1.280469,0.831017 2.454688,1.593799 2.609375,1.695071 0.154688,0.101272 0.298337,0.186319 0.319221,0.188992 0.02088,0.0027 0.05604,-0.168016 0.07813,-0.379308 z M 12.084873,17.26011 c 2.417795,-1.555725 4.042096,-2.643294 4.042096,-2.70643 0,-0.06017 -3.554213,-2.442148 -4.705269,-3.153392 l -0.48652,-0.300623 -0.73223,0.443567 c -1.1469873,0.694815 -4.5332739,2.908837 -4.5552215,2.978295 -0.010862,0.03438 0.4089299,0.34297 0.9328708,0.685768 1.3096861,0.856885 4.3176847,2.782982 4.3462017,2.782982 0.01281,0 0.533947,-0.328575 1.158072,-0.730167 z m 11.000816,0.0048 c 2.900695,-1.853796 4.04118,-2.621741 4.025366,-2.710476 -0.02053,-0.115219 -1.128528,-0.870355 -3.407893,-2.322598 L 21.935605,11.105617 21.640662,11.2775 c -0.389287,0.226864 -2.581975,1.632649 -3.933837,2.522077 -0.592017,0.389505 -1.059237,0.735953 -1.038266,0.769883 0.04539,0.07344 1.847337,1.2581 3.67716,2.417487 0.721875,0.457384 1.36875,0.868759 1.4375,0.914167 0.06875,0.04541 0.134549,0.08404 0.14622,0.08584 0.01167,0.0018 0.531984,-0.323144 1.15625,-0.722104 z m -6.379353,-3.0038 c 0.145411,-0.09168 1.164383,-0.748503 2.264383,-1.459616 1.1,-0.711113 2.232031,-1.427402 2.515625,-1.591753 0.530194,-0.307263 0.654123,-0.4473 0.333535,-0.376887 -0.161136,0.03539 -0.481278,-0.154631 -2.782002,-1.6512837 -1.42995,-0.9301997 -2.613445,-1.6912747 -2.629989,-1.6912747 -0.01654,0 -0.923236,0.5818162 -2.014873,1.2929248 -2.650918,1.7268466 -3.258735,2.0928196 -3.40088,2.0477036 -0.200135,-0.06352 -0.124714,0.08091 0.119209,0.22828 0.128906,0.07788 1.275,0.806341 2.546875,1.618797 2.396323,1.530738 2.738441,1.746967 2.766867,1.748741 0.0093,5.63e-4 0.135839,-0.07395 0.28125,-0.165629 z"
     id="path834"
     inkscape:connector-curvature="0" />
  <path
     style="fill:#550000;fill-opacity:1;stroke-width:0.0625"
     d="M 10.156936,24.722168 C 9.7451416,24.470306 8.2902504,23.539262 6.9238441,22.653184 l -2.484375,-1.611053 2.484e-4,-3.385324 2.484e-4,-3.385323 2.0153766,-1.311611 C 9.5143833,10.969043 14.361389,7.8326659 15.437895,7.1474857 l 0.958627,-0.6101527 0.193349,0.113064 c 0.306309,0.1791197 4.758703,3.0499035 8.427723,5.433969 l 3.359375,2.182864 v 3.387002 3.387001 l -1.921875,1.247026 c -2.589915,1.68049 -4.389594,2.830502 -4.489518,2.868847 -0.08255,0.03167 -1.178269,-0.648475 -4.014423,-2.491884 -1.334513,-0.867391 -1.535462,-0.97916 -1.650109,-0.917803 -0.0718,0.03843 -0.808307,0.511455 -1.636684,1.051177 -2.033544,1.324938 -3.57846,2.312337 -3.677297,2.350265 -0.04478,0.01718 -0.418333,-0.17483 -0.830127,-0.426693 z m 0.713852,-4.117504 0.0062,-2.41682 -2.0156249,-1.309505 c -1.1085937,-0.720228 -2.296875,-1.482888 -2.640625,-1.6948 l -0.625,-0.385295 -0.039112,0.42412 c -0.021511,0.233266 -0.042566,1.464745 -0.046788,2.73662 l -0.00768,2.3125 1.8905378,1.228343 c 1.0397957,0.675589 2.2280377,1.444303 2.6405371,1.708253 l 0.75,0.479909 0.04069,-0.333253 c 0.02238,-0.183289 0.04348,-1.420821 0.04687,-2.750072 z m 10.990604,0.85432 c -5.63e-4,-0.790625 -0.01834,-1.864977 -0.03957,-2.387448 l -0.0386,-0.949948 -1.75,-1.137403 c -2.624177,-1.70557 -3.412742,-2.19579 -3.458532,-2.150032 -0.02281,0.02279 -0.05051,1.255514 -0.06156,2.739384 l -0.02009,2.697947 1.926342,1.248034 c 1.059488,0.686419 2.24978,1.455141 2.645092,1.708271 l 0.71875,0.460237 0.03957,-0.395771 c 0.02176,-0.217674 0.03913,-1.042646 0.0386,-1.833271 z M 11.829756,17.419611 c 1.736397,-1.112086 4.297213,-2.819672 4.297213,-2.865439 0,-0.04087 -4.344211,-2.942449 -4.953824,-3.308748 l -0.235073,-0.141249 -0.296177,0.172692 c -0.435996,0.254218 -2.301056,1.446277 -3.7574603,2.401593 l -1.2737844,0.835528 0.1800344,0.145759 c 0.2218991,0.179653 5.0485453,3.308267 5.1328213,3.327075 0.0084,0.0019 0.416221,-0.253368 0.90625,-0.567211 z m 11.156184,-0.09495 c 1.847373,-1.174059 4.141029,-2.702444 4.141029,-2.759389 0,-0.10217 -1.757295,-1.282189 -4.177742,-2.805343 -0.903117,-0.568319 -1.037108,-0.634465 -1.15625,-0.570793 -0.651058,0.347942 -5.103508,3.276148 -5.103508,3.356383 0,0.06787 5.09022,3.415232 5.233971,3.441895 0.0084,0.0015 0.486497,-0.296687 1.0625,-0.662753 z m -4.529196,-4.19763 c 1.107686,-0.715389 2.357231,-1.50992 2.776765,-1.765625 0.419535,-0.255706 0.764066,-0.488248 0.765625,-0.51676 0.0016,-0.02851 -0.07871,-0.03393 -0.178371,-0.01204 -0.1895,0.04162 -0.155996,0.06212 -4.372465,-2.6756331 -0.800292,-0.5196307 -1.045998,-0.65124 -1.130946,-0.6057775 -0.05969,0.031945 -0.991787,0.6313826 -2.071329,1.3320844 -2.611972,1.6953612 -3.111055,1.9929212 -3.262178,1.9449562 -0.32753,-0.103954 0.06271,0.178788 1.611874,1.167866 2.690023,1.717465 3.811229,2.428977 3.829775,2.430354 0.0095,7.06e-4 0.923564,-0.584035 2.03125,-1.299423 z"
     id="path836"
     inkscape:connector-curvature="0" />
  <path
     style="fill:#550000;fill-opacity:1;stroke-width:0.0625"
     d="M 10.383401,24.86542 C 9.6758984,24.435702 8.0304705,23.382951 6.0957191,22.122146 l -1.625,-1.058953 -0.016153,-3.399714 -0.016153,-3.399714 1.6724031,-1.086403 C 10.263799,10.479561 14.747165,7.5796826 15.534853,7.0818175 l 0.861554,-0.5445526 0.193406,0.112621 c 0.357351,0.2080864 3.599764,2.2953253 7.709031,4.9625351 l 4.078125,2.646997 v 3.393629 3.39363 l -0.453125,0.294602 c -1.436056,0.933657 -4.914128,3.177632 -5.41062,3.490812 l -0.582497,0.36743 -0.198753,-0.114002 c -0.109315,-0.0627 -1.33102,-0.841042 -2.714899,-1.729644 -1.383879,-0.888603 -2.558275,-1.615641 -2.609769,-1.615641 -0.05149,0 -1.239696,0.740642 -2.640449,1.645872 -2.39186,1.545727 -2.782227,1.791628 -2.84421,1.791628 -0.01377,0 -0.256433,-0.140542 -0.539246,-0.312314 z m 0.486572,-4.50782 0.007,-2.163883 -1.8593749,-1.207835 C 7.9949379,16.321573 6.8066566,15.556487 6.3769691,15.285692 l -0.78125,-0.492355 -0.038924,0.676573 c -0.021408,0.372115 -0.042203,1.604699 -0.046211,2.739074 l -0.00729,2.0625 1.7337112,1.123035 c 0.9535411,0.617668 2.1415236,1.386615 2.6399611,1.708768 l 0.9062496,0.585734 0.03988,-0.583769 c 0.02193,-0.321072 0.04303,-1.557516 0.04687,-2.747652 z M 21.83536,20.203301 21.79722,18.135117 19.477721,16.635064 c -1.275725,-0.82503 -2.448713,-1.574922 -2.606641,-1.666427 l -0.287142,-0.166373 -0.04076,0.89086 c -0.02241,0.489973 -0.04053,1.720547 -0.04025,2.73461 l 5e-4,1.84375 1.202393,0.779109 c 0.661319,0.428511 1.849271,1.196072 2.639896,1.705692 l 1.4375,0.926582 0.04514,-0.705691 c 0.02483,-0.388131 0.02798,-1.636375 0.007,-2.773875 z m -9.708391,-2.981443 c 1.798928,-1.157098 4,-2.625328 4,-2.66821 0,-0.04286 -3.706564,-2.516445 -4.676417,-3.120818 l -0.520169,-0.324147 -0.636082,0.389674 c -0.7639658,0.468018 -4.5501588,2.915849 -4.6294727,2.993024 -0.057192,0.05565 1.178114,0.889149 3.8058908,2.567951 1.2286499,0.784945 1.4556609,0.90873 1.5624999,0.852007 0.06875,-0.0365 0.560938,-0.346768 1.09375,-0.689481 z m 11.15625,-0.0962 c 1.688521,-1.078815 3.84375,-2.51019 3.84375,-2.552791 0,-0.06233 -0.156572,-0.172509 -1.75,-1.231424 -2.029898,-1.348973 -3.331902,-2.163705 -3.457767,-2.163705 -0.116192,0 -0.479244,0.216492 -1.894707,1.129838 -1.860795,1.200703 -3.335026,2.188669 -3.335026,2.234992 0,0.05101 2.099344,1.445802 4,2.657581 1.038958,0.662396 1.23719,0.767232 1.34375,0.710654 0.06875,-0.0365 0.63125,-0.389819 1.25,-0.785145 z m -4.632917,-4.129717 c 1.104355,-0.711781 2.296198,-1.47104 2.648542,-1.687242 0.624675,-0.383308 0.795143,-0.547124 0.48952,-0.470418 -0.122959,0.03086 -0.613914,-0.26173 -2.635675,-1.5707673 -1.366514,-0.884781 -2.558076,-1.6364383 -2.647917,-1.6703495 -0.148811,-0.05617 -0.346699,0.057031 -2.2237,1.2720581 -2.64148,1.7098927 -3.1434,2.0070897 -3.307442,1.9584097 -0.127875,-0.03795 -0.127876,-0.03792 -0.0029,0.08392 0.06875,0.06703 1.053125,0.713577 2.1875,1.436768 3.439696,2.192886 3.236395,2.07193 3.367083,2.003276 0.0644,-0.03383 1.020647,-0.643872 2.125,-1.355654 z"
     id="path838"
     inkscape:connector-curvature="0" />
</svg>
