<?xml version="1.0" encoding="UTF-8" standalone="no"?>
<!-- Created with Inkscape (http://www.inkscape.org/) -->

<svg
   xmlns:dc="http://purl.org/dc/elements/1.1/"
   xmlns:cc="http://creativecommons.org/ns#"
   xmlns:rdf="http://www.w3.org/1999/02/22-rdf-syntax-ns#"
   xmlns:svg="http://www.w3.org/2000/svg"
   xmlns="http://www.w3.org/2000/svg"
   xmlns:sodipodi="http://sodipodi.sourceforge.net/DTD/sodipodi-0.dtd"
   xmlns:inkscape="http://www.inkscape.org/namespaces/inkscape"
   width="112.12897"
   height="27.213442"
   viewBox="0 0 112.12897 27.213441"
   version="1.1"
   id="svg849"
   inkscape:version="0.92.5 (2060ec1f9f, 2020-04-08)"
   sodipodi:docname="flathub-logo-toolbar.svg">
  <defs
     id="defs843" />
  <sodipodi:namedview
     id="base"
     pagecolor="#A30034"
     bordercolor="#666666"
     borderopacity="1.0"
     inkscape:pageopacity="0"
     inkscape:pageshadow="2"
     inkscape:zoom="5.6568543"
     inkscape:cx="67.384114"
     inkscape:cy="25.445405"
     inkscape:document-units="px"
     inkscape:current-layer="text10678"
     showgrid="false"
     units="px"
     inkscape:showpageshadow="false"
     borderlayer="true"
     inkscape:window-width="1308"
     inkscape:window-height="704"
     inkscape:window-x="58"
     inkscape:window-y="27"
     inkscape:window-maximized="1"
     fit-margin-top="0"
     fit-margin-left="0"
     fit-margin-right="0"
     fit-margin-bottom="0">
    <inkscape:grid
       type="xygrid"
       id="grid1472"
       originx="-4.1943225"
       originy="-4.1869999" />
  </sodipodi:namedview>
  <metadata
     id="metadata846">
    <rdf:RDF>
      <cc:Work
         rdf:about="">
        <dc:format>image/svg+xml</dc:format>
        <dc:type
           rdf:resource="http://purl.org/dc/dcmitype/StillImage" />
        <dc:title />
      </cc:Work>
    </rdf:RDF>
  </metadata>
  <g
     inkscape:label="Layer 1"
     inkscape:groupmode="layer"
     id="layer1"
     transform="translate(-4.1943224,-354.54445)">
    <g
       id="g4539"
       transform="translate(0,-0.99995221)">
      <g
         style="stroke-width:0.77710575"
         id="g10674"
         transform="matrix(0.24323469,0,0,0.24464027,-186.64462,153.79857)">
        <path
           style="color:#000000;clip-rule:nonzero;display:inline;overflow:visible;visibility:visible;opacity:1;isolation:auto;mix-blend-mode:normal;color-interpolation:sRGB;color-interpolation-filters:linearRGB;solid-color:#000000;solid-opacity:1;fill:#204a87;fill-opacity:1;fill-rule:nonzero;stroke:#204a87;stroke-width:9.3252697;stroke-linecap:square;stroke-linejoin:miter;stroke-miterlimit:4;stroke-dasharray:none;stroke-dashoffset:0;stroke-opacity:1;marker:none;marker-start:none;marker-mid:none;marker-end:none;paint-order:normal;color-rendering:auto;image-rendering:auto;shape-rendering:auto;text-rendering:auto;enable-background:accumulate"
           d="m 856.01397,830.22631 -66.76365,43.44891 v 34.93973 l 33.38182,21.72315 33.37926,-21.72315 v -0.005 l 0.003,0.003 33.38183,21.72574 33.37925,-21.72315 v -34.93979 z"
           id="path10642"
           inkscape:connector-curvature="0"
           sodipodi:nodetypes="ccccccccccc" />
        <g
           id="g10652"
           transform="matrix(0.50221552,0,0,0.50636711,429.63205,432.90461)"
           style="stroke-width:0.58728963">
          <rect
             transform="matrix(0.84019328,0.54228706,-0.84019328,0.54228706,0,0)"
             ry="0"
             rx="0"
             y="279.42584"
             x="1289.9076"
             height="79.110413"
             width="79.110413"
             id="rect10644"
             style="color:#000000;clip-rule:nonzero;display:inline;overflow:visible;visibility:visible;opacity:1;isolation:auto;mix-blend-mode:normal;color-interpolation:sRGB;color-interpolation-filters:linearRGB;solid-color:#000000;solid-opacity:1;fill:#204a87;fill-opacity:1;fill-rule:nonzero;stroke:#204a87;stroke-width:2.4608953;stroke-linecap:square;stroke-linejoin:round;stroke-miterlimit:4;stroke-dasharray:none;stroke-dashoffset:0;stroke-opacity:1;marker:none;marker-start:none;marker-mid:none;marker-end:none;paint-order:normal;color-rendering:auto;image-rendering:auto;shape-rendering:auto;text-rendering:auto;enable-background:accumulate" />
          <path
             inkscape:connector-curvature="0"
             id="path10648"
             d="m 915.46811,824.92983 -5e-5,68.99997 -66.46803,42.90055 5e-5,-68.99997 z"
             style="color:#000000;clip-rule:nonzero;display:inline;overflow:visible;visibility:visible;opacity:1;isolation:auto;mix-blend-mode:normal;color-interpolation:sRGB;color-interpolation-filters:linearRGB;solid-color:#000000;solid-opacity:1;fill:#204a87;fill-opacity:1;fill-rule:nonzero;stroke:#000000;stroke-width:2.34915853;stroke-linecap:square;stroke-linejoin:round;stroke-miterlimit:4;stroke-dasharray:none;stroke-dashoffset:0;stroke-opacity:1;marker:none;marker-start:none;marker-mid:none;marker-end:none;paint-order:normal;color-rendering:auto;image-rendering:auto;shape-rendering:auto;text-rendering:auto;enable-background:accumulate" />
          <path
             style="color:#000000;clip-rule:nonzero;display:inline;overflow:visible;visibility:visible;opacity:1;isolation:auto;mix-blend-mode:normal;color-interpolation:sRGB;color-interpolation-filters:linearRGB;solid-color:#000000;solid-opacity:1;fill:#ffffff;fill-opacity:1;fill-rule:nonzero;stroke:#000000;stroke-width:2.34915853;stroke-linecap:square;stroke-linejoin:round;stroke-miterlimit:4;stroke-dasharray:none;stroke-dashoffset:0;stroke-opacity:1;marker:none;marker-start:none;marker-mid:none;marker-end:none;paint-order:normal;color-rendering:auto;image-rendering:auto;shape-rendering:auto;text-rendering:auto;enable-background:accumulate"
             d="m 783.00003,824.92983 5e-5,68.99997 66.46803,42.90055 -5e-5,-68.99997 z"
             id="path10650"
             inkscape:connector-curvature="0" />
          <rect
             style="color:#000000;clip-rule:nonzero;display:inline;overflow:visible;visibility:visible;opacity:1;isolation:auto;mix-blend-mode:normal;color-interpolation:sRGB;color-interpolation-filters:linearRGB;solid-color:#000000;solid-opacity:1;fill:#ffffff;fill-opacity:1;fill-rule:nonzero;stroke:#204a87;stroke-width:2.4608953;stroke-linecap:square;stroke-linejoin:round;stroke-miterlimit:4;stroke-dasharray:none;stroke-dashoffset:0;stroke-opacity:1;marker:none;marker-start:none;marker-mid:none;marker-end:none;paint-order:normal;color-rendering:auto;image-rendering:auto;shape-rendering:auto;text-rendering:auto;enable-background:accumulate"
             id="rect10646"
             width="79.110413"
             height="79.110413"
             x="1226.2882"
             y="215.8064"
             rx="0"
             ry="0"
             transform="matrix(0.84019328,0.54228706,-0.84019328,0.54228706,0,0)" />
        </g>
        <g
           id="g10662"
           transform="matrix(0.50221552,0,0,0.50636711,463.01368,454.62849)"
           style="stroke-width:0.58728963">
          <rect
             style="color:#000000;clip-rule:nonzero;display:inline;overflow:visible;visibility:visible;opacity:1;isolation:auto;mix-blend-mode:normal;color-interpolation:sRGB;color-interpolation-filters:linearRGB;solid-color:#000000;solid-opacity:1;fill:#204a87;fill-opacity:1;fill-rule:nonzero;stroke:#204a87;stroke-width:2.4608953;stroke-linecap:square;stroke-linejoin:round;stroke-miterlimit:4;stroke-dasharray:none;stroke-dashoffset:0;stroke-opacity:1;marker:none;marker-start:none;marker-mid:none;marker-end:none;paint-order:normal;color-rendering:auto;image-rendering:auto;shape-rendering:auto;text-rendering:auto;enable-background:accumulate"
             id="rect10654"
             width="79.110413"
             height="79.110413"
             x="1289.9076"
             y="279.42584"
             rx="0"
             ry="0"
             transform="matrix(0.84019328,0.54228706,-0.84019328,0.54228706,0,0)" />
          <rect
             transform="matrix(0.84019328,0.54228706,-0.84019328,0.54228706,0,0)"
             ry="0"
             rx="0"
             y="215.8064"
             x="1226.2882"
             height="79.110413"
             width="79.110413"
             id="rect10656"
             style="color:#000000;clip-rule:nonzero;display:inline;overflow:visible;visibility:visible;opacity:1;isolation:auto;mix-blend-mode:normal;color-interpolation:sRGB;color-interpolation-filters:linearRGB;solid-color:#000000;solid-opacity:1;fill:#ffffff;fill-opacity:1;fill-rule:nonzero;stroke:#204a87;stroke-width:2.4608953;stroke-linecap:square;stroke-linejoin:round;stroke-miterlimit:4;stroke-dasharray:none;stroke-dashoffset:0;stroke-opacity:1;marker:none;marker-start:none;marker-mid:none;marker-end:none;paint-order:normal;color-rendering:auto;image-rendering:auto;shape-rendering:auto;text-rendering:auto;enable-background:accumulate" />
          <path
             style="color:#000000;clip-rule:nonzero;display:inline;overflow:visible;visibility:visible;opacity:1;isolation:auto;mix-blend-mode:normal;color-interpolation:sRGB;color-interpolation-filters:linearRGB;solid-color:#000000;solid-opacity:1;fill:#204a87;fill-opacity:1;fill-rule:nonzero;stroke:#204a87;stroke-width:2.34915853;stroke-linecap:square;stroke-linejoin:round;stroke-miterlimit:4;stroke-dasharray:none;stroke-dashoffset:0;stroke-opacity:1;marker:none;marker-start:none;marker-mid:none;marker-end:none;paint-order:normal;color-rendering:auto;image-rendering:auto;shape-rendering:auto;text-rendering:auto;enable-background:accumulate"
             d="m 915.46811,824.92983 -5e-5,68.99997 -66.46803,42.90055 5e-5,-68.99997 z"
             id="path10658"
             inkscape:connector-curvature="0" />
          <path
             inkscape:connector-curvature="0"
             id="path10660"
             d="m 783.00003,826.54445 5e-5,68.99997 66.46803,42.90055 -5e-5,-68.99997 z"
             style="color:#000000;clip-rule:nonzero;display:inline;overflow:visible;visibility:visible;opacity:1;isolation:auto;mix-blend-mode:normal;color-interpolation:sRGB;color-interpolation-filters:linearRGB;solid-color:#000000;solid-opacity:1;fill:#ffffff;fill-opacity:1;fill-rule:nonzero;stroke:#204a87;stroke-width:2.34915853;stroke-linecap:square;stroke-linejoin:round;stroke-miterlimit:4;stroke-dasharray:none;stroke-dashoffset:0;stroke-opacity:1;marker:none;marker-start:none;marker-mid:none;marker-end:none;paint-order:normal;color-rendering:auto;image-rendering:auto;shape-rendering:auto;text-rendering:auto;enable-background:accumulate" />
        </g>
        <g
           transform="matrix(0.50221552,0,0,0.50636711,396.25042,454.62849)"
           id="g10672"
           style="stroke-width:0.58728963">
          <rect
             transform="matrix(0.84019328,0.54228706,-0.84019328,0.54228706,0,0)"
             ry="0"
             rx="0"
             y="279.42584"
             x="1289.9076"
             height="79.110413"
             width="79.110413"
             id="rect10664"
             style="color:#000000;clip-rule:nonzero;display:inline;overflow:visible;visibility:visible;opacity:1;isolation:auto;mix-blend-mode:normal;color-interpolation:sRGB;color-interpolation-filters:linearRGB;solid-color:#000000;solid-opacity:1;fill:#204a87;fill-opacity:1;fill-rule:nonzero;stroke:#204a87;stroke-width:2.4608953;stroke-linecap:square;stroke-linejoin:round;stroke-miterlimit:4;stroke-dasharray:none;stroke-dashoffset:0;stroke-opacity:1;marker:none;marker-start:none;marker-mid:none;marker-end:none;paint-order:normal;color-rendering:auto;image-rendering:auto;shape-rendering:auto;text-rendering:auto;enable-background:accumulate" />
          <rect
             style="color:#000000;clip-rule:nonzero;display:inline;overflow:visible;visibility:visible;opacity:1;isolation:auto;mix-blend-mode:normal;color-interpolation:sRGB;color-interpolation-filters:linearRGB;solid-color:#000000;solid-opacity:1;fill:#ffffff;fill-opacity:1;fill-rule:nonzero;stroke:#204a87;stroke-width:2.4608953;stroke-linecap:square;stroke-linejoin:round;stroke-miterlimit:4;stroke-dasharray:none;stroke-dashoffset:0;stroke-opacity:1;marker:none;marker-start:none;marker-mid:none;marker-end:none;paint-order:normal;color-rendering:auto;image-rendering:auto;shape-rendering:auto;text-rendering:auto;enable-background:accumulate"
             id="rect10666"
             width="79.110413"
             height="79.110413"
             x="1226.2882"
             y="215.8064"
             rx="0"
             ry="0"
             transform="matrix(0.84019328,0.54228706,-0.84019328,0.54228706,0,0)" />
          <path
             inkscape:connector-curvature="0"
             id="path10668"
             d="m 915.46811,824.92983 -5e-5,68.99997 -66.46803,42.90055 5e-5,-68.99997 z"
             style="color:#000000;clip-rule:nonzero;display:inline;overflow:visible;visibility:visible;opacity:1;isolation:auto;mix-blend-mode:normal;color-interpolation:sRGB;color-interpolation-filters:linearRGB;solid-color:#000000;solid-opacity:1;fill:#204a87;fill-opacity:1;fill-rule:nonzero;stroke:#204a87;stroke-width:2.34915853;stroke-linecap:square;stroke-linejoin:round;stroke-miterlimit:4;stroke-dasharray:none;stroke-dashoffset:0;stroke-opacity:1;marker:none;marker-start:none;marker-mid:none;marker-end:none;paint-order:normal;color-rendering:auto;image-rendering:auto;shape-rendering:auto;text-rendering:auto;enable-background:accumulate" />
          <path
             style="color:#000000;clip-rule:nonzero;display:inline;overflow:visible;visibility:visible;opacity:1;isolation:auto;mix-blend-mode:normal;color-interpolation:sRGB;color-interpolation-filters:linearRGB;solid-color:#000000;solid-opacity:1;fill:#ffffff;fill-opacity:1;fill-rule:nonzero;stroke:#204a87;stroke-width:2.34915853;stroke-linecap:square;stroke-linejoin:round;stroke-miterlimit:4;stroke-dasharray:none;stroke-dashoffset:0;stroke-opacity:1;marker:none;marker-start:none;marker-mid:none;marker-end:none;paint-order:normal;color-rendering:auto;image-rendering:auto;shape-rendering:auto;text-rendering:auto;enable-background:accumulate"
             d="m 783.00003,824.92983 5e-5,68.99997 66.46803,42.90055 -5e-5,-68.99997 z"
             id="path10670"
             inkscape:connector-curvature="0" />
        </g>
      </g>
      <g
         transform="matrix(1.0295097,0,0,0.57578819,-18.708915,160.65461)"
         id="text10678"
         style="color:#000000;font-style:normal;font-variant:normal;font-weight:600;font-stretch:normal;font-size:15.27007771px;line-height:28.63140106px;font-family:'Source Sans Pro';-inkscape-font-specification:'Source Sans Pro, Semi-Bold';font-variant-ligatures:normal;font-variant-caps:normal;font-variant-numeric:normal;font-feature-settings:normal;text-indent:0;text-align:start;text-decoration:none;text-decoration-line:none;letter-spacing:0px;word-spacing:0px;text-transform:none;writing-mode:lr-tb;direction:ltr;baseline-shift:baseline;text-anchor:start;display:inline;overflow:visible;visibility:visible;fill:#ffffff;fill-opacity:1;fill-rule:nonzero;stroke:none;stroke-width:1.1452564;stroke-linecap:butt;stroke-linejoin:miter;stroke-opacity:1;marker:none;marker-start:none;marker-mid:none;marker-end:none;enable-background:accumulate"
         aria-label="FLATHUB">
        <text
           xml:space="preserve"
           style="font-style:normal;font-variant:normal;font-weight:normal;font-stretch:normal;font-size:38.85344696px;line-height:1.25;font-family:'Bitstream Vera Sans';-inkscape-font-specification:'Bitstream Vera Sans';letter-spacing:0px;word-spacing:0px;fill:#000000;fill-opacity:1;stroke:none;stroke-width:1.1124289"
           x="58.177551"
           y="349.11963"
           id="text187"><tspan
             sodipodi:role="line"
             id="tspan185"
             x="58.177551"
             y="383.49582"
             style="font-style:normal;font-variant:normal;font-weight:normal;font-stretch:normal;font-family:'Bitstream Vera Sans';-inkscape-font-specification:'Bitstream Vera Sans';stroke-width:1.1124289"></tspan></text>
        <text
           xml:space="preserve"
           style="font-style:normal;font-variant:normal;font-weight:normal;font-stretch:normal;font-size:24.38173294px;line-height:1.25;font-family:'Noto Mono';-inkscape-font-specification:'Noto Mono';letter-spacing:0px;word-spacing:0px;fill:#000000;fill-opacity:1;stroke:none;stroke-width:1.16347206"
           x="79.245087"
           y="278.50879"
           id="text195"
           transform="scale(0.74546351,1.3414473)"><tspan
             sodipodi:role="line"
             id="tspan193"
             x="79.245087"
             y="278.50879"
             style="font-style:normal;font-variant:normal;font-weight:normal;font-stretch:normal;font-family:'Ubuntu Mono';-inkscape-font-specification:'Ubuntu Mono';letter-spacing:0px;fill:#ffffff;stroke-width:1.16347206">DEBSTORE</tspan></text>
      </g>
      <path
         style="fill:#ff5555;stroke-width:0.125"
         d="m 22.721984,23.261609 c -2.038921,-1.308524 -3.928672,-2.591013 -4.327045,-2.936569 -0.257547,-0.223402 -0.267884,-0.345148 -0.3125,-3.680616 -0.02538,-1.897264 -0.0077,-3.488333 0.03921,-3.53571 0.07504,-0.07573 1.715666,0.933847 5.695298,3.504686 l 1.155653,0.746551 -0.01264,2.375 c -0.01516,2.848494 -0.127773,4.590091 -0.30048,4.646955 -0.06975,0.02296 -0.941622,-0.481169 -1.9375,-1.120297 z"
         id="path106"
         inkscape:connector-curvature="0"
         transform="translate(4.1943224,355.5444)" />
      <path
         style="fill:#ff5555;stroke-width:0.125"
         d="m 23.672396,15.113812 c -1.354077,-0.821088 -3.961936,-2.572961 -4.625013,-3.106928 -0.222852,-0.17946 -0.327593,-0.351822 -0.270215,-0.444662 0.107764,-0.174366 4.872927,-3.370693 6.036748,-4.0492683 l 0.777619,-0.453397 2.972381,1.9859943 c 1.63481,1.092297 3.14083,2.124626 3.346711,2.294064 0.369864,0.304394 0.371507,0.311188 0.137809,0.569423 -0.456443,0.504363 -4.220689,2.951472 -5.66908,3.685428 -0.355987,0.180391 -0.810636,0.327985 -1.010332,0.327985 -0.225934,0 -0.866811,-0.305452 -1.696628,-0.808639 z"
         id="path108"
         inkscape:connector-curvature="0"
         transform="translate(4.1943224,355.5444)" />
      <path
         style="fill:#ff5555;stroke-width:0.125"
         d=""
         id="path110"
         inkscape:connector-curvature="0"
         transform="translate(4.1943224,355.5444)" />
      <path
         style="fill:#ff5555;stroke-width:0.125"
         d="M 7.0132287,25.59561 C 5.7884162,24.801053 3.7954725,23.49751 2.5844646,22.698846 L 0.38263231,21.246728 0.30321465,20.127887 C 0.25953495,19.512523 0.223797,17.287188 0.223797,15.182698 v -3.826346 l 4.96875,-3.2443445 c 8.381482,-5.4726879 12.050145,-7.81455665 12.241922,-7.81455665 0.10095,0 2.949534,1.80591235 6.330187,4.01313865 3.380652,2.2072261 7.199478,4.6962886 8.486281,5.53125 l 2.33964,1.5181115 0.03089,4.15625 c 0.01699,2.285937 0.0329,4.475582 0.03536,4.865877 l 0.0045,0.709629 -2.375,1.543719 c -1.30625,0.849045 -3.34815,2.165162 -4.537555,2.924706 l -2.162555,1.380988 -0.524945,-0.273527 c -0.288719,-0.15044 -1.959319,-1.185773 -3.712444,-2.30074 -4.33017,-2.753938 -3.87034,-2.517708 -4.38482,-2.252633 -0.235224,0.121195 -1.83393,1.131085 -3.55268,2.244202 -1.71875,1.113116 -3.360381,2.171895 -3.6480683,2.352841 l -0.5230682,0.328994 z m 18.4309803,-4.264717 -0.03291,-4.216556 -1,-0.661391 c -3.141161,-2.077535 -6.705615,-4.284054 -6.813166,-4.217583 -0.07831,0.0484 -0.124334,1.579282 -0.124334,4.136154 v 4.059311 l 2.53125,1.655392 c 4.617785,3.019946 5.280466,3.445587 5.376662,3.453441 0.05248,0.0043 0.0806,-1.889661 0.0625,-4.208768 z M 9.223797,21.070468 v -4.226982 l 0.4994745,-0.28072 c 0.8937045,-0.50229 6.4228895,-4.152474 6.9846125,-4.611009 0.371582,-0.303321 0.596104,-0.409459 0.701243,-0.331492 1.078499,0.799766 6.94939,4.600108 7.782291,5.037627 0.360389,0.189311 0.426643,0.154485 3.515073,-1.847691 3.932063,-2.54909 4.651763,-3.046879 4.605558,-3.185493 -0.06837,-0.205101 -5.316458,-3.6631742 -7.535776,-4.9654742 -0.280512,-0.1646056 -0.888252,-0.580533 -1.350532,-0.924283 -1.012099,-0.7525925 -6.841113,-4.5625 -6.980453,-4.5625 -0.165997,0 -7.6297341,4.7617735 -7.9696235,5.0845233 -0.033348,0.031666 0.079152,0.1649771 0.25,0.2962464 C 10.094753,6.8368058 9.9010639,6.8826511 9.505228,6.6053968 9.2436842,6.4222045 9.1256051,6.4817863 6.9461647,7.896683 2.2265866,10.960642 1.344879,11.564984 1.4190926,11.685064 c 0.041925,0.06784 0.014345,0.197901 -0.061288,0.289033 -0.095311,0.114843 -0.1273856,1.40526 -0.1045111,4.204668 l 0.033003,4.038972 1.5,1.003909 c 2.6199135,1.753437 6.2298669,4.075805 6.335545,4.075805 0.056075,0 0.101955,-1.902143 0.1019555,-4.226983 z"
         id="path112"
         inkscape:connector-curvature="0"
         transform="translate(4.1943224,355.5444)" />
      <path
         style="fill:#ff5555;stroke-width:0.125"
         d="M 7.0140851,25.596166 C 5.7888016,24.801305 3.7954725,23.49751 2.5844646,22.698846 L 0.38263231,21.246728 0.30321465,20.127887 C 0.25953495,19.512523 0.223797,17.287231 0.223797,15.182792 V 11.35654 l 3.53125,-2.3066425 c 7.94185,-5.1876829 13.174482,-8.55303901 13.478125,-8.66842624 0.293859,-0.11166961 1.063221,0.36077608 8.839456,5.42808194 l 8.517583,5.5503978 0.005,3.8125 c 0.0028,2.096875 0.04051,4.268014 0.08385,4.824752 l 0.07881,1.012252 -1.110812,0.727798 c -2.087741,1.367878 -6.109536,3.968523 -7.08981,4.58454 l -0.978998,0.615217 -0.51838,-0.270195 c -0.285104,-0.148607 -2.098707,-1.276883 -4.030224,-2.507279 -1.931518,-1.230398 -3.578626,-2.237085 -3.66024,-2.237085 -0.171234,0 -1.021976,0.527209 -4.833155,2.995125 -1.5125,0.979415 -2.8724954,1.857939 -3.0222119,1.952274 -0.252566,0.159141 -0.4329945,0.06722 -2.5,-1.273684 z M 25.473797,21.363175 V 17.1789 l -1.09375,-0.734122 c -1.29509,-0.86926 -4.764321,-3.106827 -5.882093,-3.793803 -0.433588,-0.266481 -0.841401,-0.45172 -0.90625,-0.411641 -0.06996,0.04324 -0.117907,1.723811 -0.117907,4.132741 v 4.05987 l 2.71875,1.780382 c 4.133649,2.706934 5.085222,3.317138 5.1875,3.326523 0.05156,0.0047 0.09375,-1.874323 0.09375,-4.175675 z m -16.25,-0.28652 v -4.220797 l 0.71875,-0.42725 c 1.277666,-0.759491 6.20219,-4.018805 6.765337,-4.477664 0.371522,-0.30272 0.596122,-0.408633 0.701243,-0.330679 1.078499,0.799766 6.94939,4.600108 7.782291,5.037627 0.331948,0.174371 0.502209,0.09886 2.129264,-0.944392 3.561144,-2.283359 6.03137,-3.968783 5.991615,-4.088048 C 33.244428,11.421846 29.030546,8.6391017 25.516911,6.4775707 25.299998,6.3441298 24.592534,5.8578471 23.944768,5.3969426 22.657101,4.4807288 17.831028,1.3307532 17.549378,1.2226741 17.452988,1.1856854 16.679362,1.5892167 15.830209,2.1194106 14.372047,3.0298587 9.6063009,6.1329253 9.4756645,6.2569741 c -0.033348,0.031666 0.079152,0.1649771 0.25,0.2962464 C 10.094901,6.8369196 9.9009862,6.8825967 9.5049589,6.6052082 9.2423357,6.4212598 9.0833891,6.5083642 5.8208955,8.6241111 1.7234205,11.281349 1.3366691,11.5517 1.4260192,11.696272 c 0.038115,0.06167 0.00742,0.186693 -0.068214,0.277825 -0.095321,0.114855 -0.127388,1.40761 -0.1045111,4.213274 l 0.033003,4.04758 1.5,0.9945 c 3.0419757,2.016829 6.2364914,4.068 6.335545,4.068 0.056075,0 0.101955,-1.899359 0.1019549,-4.220796 z"
         id="path114"
         inkscape:connector-curvature="0"
         transform="translate(4.1943224,355.5444)" />
      <path
         style="fill:#ff5555;stroke-width:0.125"
         d="M 7.0561629,25.621112 C 5.8540221,24.83997 3.8607525,23.537015 2.6266747,22.725655 L 0.38289691,21.250456 0.30334696,20.129751 c -0.0437525,-0.616389 -0.07955,-2.84252 -0.07955,-4.946959 V 11.35654 L 3.755047,9.0498975 C 11.703921,3.857626 16.929652,0.49681175 17.234174,0.38109277 c 0.295173,-0.11216656 1.008414,0.32551562 8.3125,5.10099023 4.394293,2.8730263 8.228685,5.370466 8.520873,5.549866 l 0.53125,0.326181 7.5e-4,3.813411 c 3.75e-4,2.097375 0.03645,4.272034 0.0801,4.832572 l 0.07935,1.019163 -1.048845,0.680417 c -4.711807,3.05669 -6.304879,4.085228 -7.152842,4.6181 l -0.978999,0.615217 -0.51838,-0.270195 c -0.28511,-0.148607 -2.098713,-1.276883 -4.03023,-2.507279 -1.931518,-1.230398 -3.578626,-2.237085 -3.66024,-2.237085 -0.171234,0 -1.021976,0.527209 -4.833155,2.995125 -1.5125,0.979415 -2.8724954,1.857939 -3.0222119,1.952274 C 9.261553,27.02897 9.083855,26.938691 7.0561629,25.621112 Z M 25.473797,21.379325 c 0,-3.815358 -0.01851,-4.18389 -0.21875,-4.354379 -0.231565,-0.197164 -5.4205,-3.557449 -6.757093,-4.375804 -0.433588,-0.265473 -0.841401,-0.449887 -0.90625,-0.409808 -0.06996,0.04324 -0.117907,1.723602 -0.117907,4.132183 v 4.059311 l 2.53125,1.655392 c 4.608591,3.013933 5.280417,3.445582 5.375,3.453441 0.05156,0.0043 0.09375,-1.867868 0.09375,-4.160336 z m -16.25,-0.30267 v -4.220797 l 0.71875,-0.42725 c 1.277666,-0.759491 6.20219,-4.018805 6.765337,-4.477664 0.371522,-0.30272 0.596122,-0.408633 0.701243,-0.330679 1.078499,0.799766 6.94939,4.600108 7.782291,5.037627 0.331948,0.174371 0.502209,0.09886 2.129264,-0.944392 3.561144,-2.283359 6.03137,-3.968783 5.991615,-4.088048 C 33.244428,11.421846 29.030546,8.6391017 25.516911,6.4775707 25.299998,6.3441298 24.592534,5.8578471 23.944768,5.3969426 22.651324,4.4766186 17.830488,1.3305458 17.546984,1.2217553 17.369336,1.1535849 14.426814,2.9509712 11.223797,5.084162 10.295672,5.7022876 9.5090124,6.2319943 9.4756645,6.261288 c -0.033348,0.029294 0.079152,0.1606632 0.25,0.2919325 C 10.094901,6.8369196 9.9009862,6.8825967 9.5049589,6.6052082 9.2423357,6.4212598 9.0833891,6.5083642 5.8208955,8.6241111 1.7234205,11.281349 1.3366691,11.5517 1.4260192,11.696272 c 0.038115,0.06167 0.00742,0.186693 -0.068214,0.277825 -0.095321,0.114855 -0.127388,1.40761 -0.1045111,4.213274 l 0.033003,4.04758 1.5,0.9945 c 3.0419757,2.016829 6.2364914,4.068 6.335545,4.068 0.056075,0 0.101955,-1.899359 0.1019549,-4.220796 z"
         id="path116"
         inkscape:connector-curvature="0"
         transform="translate(4.1943224,355.5444)" />
      <path
         style="fill:#ff5555;stroke-width:0.125"
         d="M 7.0561629,25.621112 C 5.8540221,24.83997 3.8607525,23.537015 2.6266747,22.725655 L 0.38289691,21.250456 0.30334696,20.129751 c -0.0437525,-0.616389 -0.07955,-2.84252 -0.07955,-4.946959 V 11.35654 L 3.755047,9.0498975 C 11.703921,3.857626 16.929652,0.49681175 17.234174,0.38109277 c 0.295173,-0.11216656 1.008414,0.32551562 8.3125,5.10099023 4.394293,2.8730263 8.228685,5.370466 8.520873,5.549866 l 0.53125,0.326181 7.5e-4,3.813411 c 3.75e-4,2.097375 0.03645,4.272034 0.0801,4.832572 l 0.07935,1.019163 -1.048845,0.680417 c -4.711807,3.05669 -6.304879,4.085228 -7.152842,4.6181 l -0.978999,0.615217 -0.51838,-0.270195 c -0.28511,-0.148607 -2.098713,-1.276883 -4.03023,-2.507279 -1.931518,-1.230398 -3.578626,-2.237085 -3.66024,-2.237085 -0.171234,0 -1.021976,0.527209 -4.833155,2.995125 -1.5125,0.979415 -2.8724954,1.857939 -3.0222119,1.952274 C 9.261553,27.02897 9.083855,26.938691 7.0561629,25.621112 Z M 25.473797,21.379325 c 0,-3.815358 -0.01851,-4.18389 -0.21875,-4.354379 -0.231565,-0.197164 -5.4205,-3.557449 -6.757093,-4.375804 -0.433588,-0.265473 -0.841401,-0.449887 -0.90625,-0.409808 -0.06996,0.04324 -0.117907,1.723602 -0.117907,4.132183 v 4.059311 l 2.53125,1.655392 c 4.608591,3.013933 5.280417,3.445582 5.375,3.453441 0.05156,0.0043 0.09375,-1.867868 0.09375,-4.160336 z m -16.25,-0.30267 v -4.220797 l 0.71875,-0.42725 c 1.277666,-0.759491 6.20219,-4.018805 6.765337,-4.477664 0.371522,-0.30272 0.596122,-0.408633 0.701243,-0.330679 1.078499,0.799766 6.94939,4.600108 7.782291,5.037627 0.331948,0.174371 0.502209,0.09886 2.129264,-0.944392 3.561144,-2.283359 6.03137,-3.968783 5.991615,-4.088048 C 33.244428,11.421846 29.030546,8.6391017 25.516911,6.4775707 25.299998,6.3441298 24.592534,5.8578471 23.944768,5.3969426 22.657101,4.4807288 17.831028,1.3307532 17.549378,1.2226741 17.452988,1.1856854 16.679362,1.5892167 15.830209,2.1194106 14.372047,3.0298587 9.6063009,6.1329253 9.4756645,6.2569741 c -0.033348,0.031666 0.079152,0.1649771 0.25,0.2962464 C 10.094901,6.8369196 9.9009862,6.8825967 9.5049589,6.6052082 9.2423357,6.4212598 9.0833891,6.5083642 5.8208955,8.6241111 1.7234205,11.281349 1.3366691,11.5517 1.4260192,11.696272 c 0.038115,0.06167 0.00742,0.186693 -0.068214,0.277825 -0.095321,0.114855 -0.127388,1.40761 -0.1045111,4.213274 l 0.033003,4.04758 1.5,0.9945 c 3.0419757,2.016829 6.2364914,4.068 6.335545,4.068 0.056075,0 0.101955,-1.899359 0.1019549,-4.220796 z"
         id="path118"
         inkscape:connector-curvature="0"
         transform="translate(4.1943224,355.5444)" />
      <path
         style="fill:#ff5555;stroke-width:0.125"
         d="m 22.721984,23.261609 c -2.038921,-1.308524 -3.928672,-2.591013 -4.327045,-2.936569 -0.257547,-0.223402 -0.267884,-0.345148 -0.3125,-3.680616 -0.02538,-1.897264 -0.0077,-3.488333 0.03921,-3.53571 0.07504,-0.07573 1.715666,0.933847 5.695298,3.504686 l 1.155653,0.746551 -0.01264,2.375 c -0.01516,2.848494 -0.127773,4.590091 -0.30048,4.646955 -0.06975,0.02296 -0.941622,-0.481169 -1.9375,-1.120297 z"
         id="path120"
         inkscape:connector-curvature="0"
         transform="translate(4.1943224,355.5444)" />
      <path
         style="fill:#ff5555;stroke-width:0.125"
         d="m 23.672396,15.113812 c -1.354077,-0.821088 -3.961936,-2.572961 -4.625013,-3.106928 -0.222852,-0.17946 -0.327593,-0.351822 -0.270215,-0.444662 0.107764,-0.174366 4.872927,-3.370693 6.036748,-4.0492683 l 0.777619,-0.453397 2.972381,1.9859943 c 1.63481,1.092297 3.14083,2.124626 3.346711,2.294064 0.369864,0.304394 0.371507,0.311188 0.137809,0.569423 -0.456443,0.504363 -4.220689,2.951472 -5.66908,3.685428 -0.355987,0.180391 -0.810636,0.327985 -1.010332,0.327985 -0.225934,0 -0.866811,-0.305452 -1.696628,-0.808639 z"
         id="path122"
         inkscape:connector-curvature="0"
         transform="translate(4.1943224,355.5444)" />
      <path
         style="fill:#ff5555;stroke-width:0.125"
         d="M 15.881633,10.119559 C 14.228276,9.0840993 11.623246,7.2687872 11.013196,6.726993 l -0.476899,-0.4235402 0.3125,-0.2511552 C 11.268483,5.714997 16.125679,2.4738167 16.862691,2.0392587 l 0.584981,-0.3449171 2.606041,1.6873316 c 2.944828,1.906685 4.170084,2.7588541 4.170084,2.9003041 0,0.1674288 -0.517718,0.5816387 -1.9375,1.5501342 -2.133358,1.4552561 -4.834386,3.0948975 -5.089595,3.0896055 -0.01947,-4.04e-4 -0.611254,-0.361375 -1.315069,-0.802158 z"
         id="path124"
         inkscape:connector-curvature="0"
         transform="translate(4.1943224,355.5444)" />
      <path
         style="fill:#ff5555;stroke-width:0.125"
         d="M 8.788217,15.768766 C 8.2242285,15.477326 4.9211297,13.370174 3.6032164,12.461089 2.6965165,11.835656 2.5745974,11.62907 2.942547,11.341618 4.2485334,10.321349 8.9881692,7.2974508 9.2813461,7.2974508 c 0.5258945,0 6.5695499,4.1232342 6.5668219,4.4801602 -0.0012,0.151343 -4.242943,2.938743 -5.874371,3.860218 l -0.6875,0.388319 z"
         id="path126"
         inkscape:connector-curvature="0"
         transform="translate(4.1943224,355.5444)" />
      <path
         style="fill:#ff5555;stroke-width:0.125"
         d="M 7.1844231,23.477329 C 5.6723896,22.542468 2.6181081,20.507645 2.161297,20.130824 L 1.786297,19.821487 1.7477,16.371969 c -0.027238,-2.434289 0.00159,-3.449518 0.097944,-3.449518 0.1665837,0 1.9659967,1.07745 4.8614207,2.910914 l 2.1707675,1.374591 -0.079773,2.325998 c -0.1212923,3.536585 -0.2094861,4.639452 -0.3703764,4.63157 -0.077762,-0.0038 -0.6372284,-0.313497 -1.2432597,-0.688195 z"
         id="path128"
         inkscape:connector-curvature="0"
         transform="translate(4.1943224,355.5444)" />
      <path
         style="fill:#ff5555;stroke-width:0.125"
         d="M 7.0765851,25.632246 C 5.8856766,24.857227 3.8924376,23.554705 2.6471651,22.73775 L 0.38303335,21.252378 0.30341517,20.130712 C 0.25962517,19.513795 0.223797,17.287231 0.223797,15.182792 V 11.35654 L 3.755047,9.0498975 C 11.703921,3.857626 16.929652,0.49681175 17.234174,0.38109277 c 0.295173,-0.11216656 1.008414,0.32551562 8.3125,5.10099023 4.394293,2.8730263 8.228685,5.370466 8.520873,5.549866 l 0.53125,0.326181 7.5e-4,3.813411 c 3.75e-4,2.097375 0.03645,4.272034 0.0801,4.832572 l 0.07935,1.019163 -1.048845,0.680417 c -4.711807,3.05669 -6.304879,4.085228 -7.152842,4.6181 l -0.978999,0.615217 -0.51838,-0.270195 c -0.28511,-0.148607 -2.098713,-1.276883 -4.03023,-2.507279 -1.931518,-1.230398 -3.578626,-2.237085 -3.66024,-2.237085 -0.171234,0 -1.021976,0.527209 -4.833155,2.995125 -1.5125,0.979415 -2.8724954,1.857939 -3.0222119,1.952274 -0.2525246,0.159115 -0.4288126,0.06961 -2.4375,-1.237604 z M 25.473797,21.379325 c 0,-3.815358 -0.01851,-4.18389 -0.21875,-4.354379 -0.231565,-0.197164 -5.4205,-3.557449 -6.757093,-4.375804 -0.433588,-0.265473 -0.841401,-0.449887 -0.90625,-0.409808 -0.06996,0.04324 -0.117907,1.723602 -0.117907,4.132183 v 4.059311 l 2.53125,1.655392 c 4.608591,3.013933 5.280417,3.445582 5.375,3.453441 0.05156,0.0043 0.09375,-1.867868 0.09375,-4.160336 z m -16.25,-0.30267 v -4.220797 l 0.71875,-0.42725 c 1.277666,-0.759491 6.20219,-4.018805 6.765337,-4.477664 0.371522,-0.30272 0.596122,-0.408633 0.701243,-0.330679 1.078499,0.799766 6.94939,4.600108 7.782291,5.037627 0.331948,0.174371 0.502209,0.09886 2.129264,-0.944392 3.573746,-2.29144 6.031316,-3.969045 5.991287,-4.089817 -0.05607,-0.16916 -3.200322,-2.2745769 -5.838172,-3.9092844 -1.065625,-0.6603809 -2.078125,-1.3045421 -2.25,-1.4314694 -1.329879,-0.9820971 -7.306095,-4.918916 -7.691686,-5.0668813 -0.08689,-0.033344 -0.852749,0.3731688 -1.701902,0.9033627 -1.458162,0.9104481 -6.2239081,4.0135147 -6.3545445,4.1375635 -0.033348,0.031666 0.079152,0.1649771 0.25,0.2962464 C 10.094901,6.8369196 9.9009862,6.8825967 9.5049589,6.6052082 9.2423357,6.4212598 9.0833891,6.5083642 5.8208955,8.6241111 1.7234205,11.281349 1.3366691,11.5517 1.4260192,11.696272 c 0.038115,0.06167 0.00742,0.186693 -0.068214,0.277825 -0.095321,0.114855 -0.127388,1.40761 -0.1045111,4.213274 l 0.033003,4.04758 1.5,0.9945 c 3.0419757,2.016829 6.2364914,4.068 6.335545,4.068 0.056075,0 0.101955,-1.899359 0.1019549,-4.220796 z"
         id="path130"
         inkscape:connector-curvature="0"
         transform="translate(4.1943224,355.5444)" />
      <path
         style="fill:#ff5555;stroke-width:0.125"
         d="M 7.0765851,25.632246 C 5.8856766,24.857227 3.8924376,23.554705 2.6471651,22.73775 L 0.38303335,21.252378 0.30341517,20.130712 C 0.25962517,19.513795 0.223797,17.287231 0.223797,15.182792 V 11.35654 L 3.755047,9.0498975 C 11.703921,3.857626 16.929652,0.49681175 17.234174,0.38109277 c 0.295173,-0.11216656 1.008414,0.32551562 8.3125,5.10099023 4.394293,2.8730263 8.228685,5.370466 8.520873,5.549866 l 0.53125,0.326181 7.5e-4,3.813411 c 3.75e-4,2.097375 0.03645,4.272034 0.0801,4.832572 l 0.07935,1.019163 -1.048845,0.680417 c -4.711807,3.05669 -6.304879,4.085228 -7.152842,4.6181 l -0.978999,0.615217 -0.51838,-0.270195 c -0.28511,-0.148607 -2.098713,-1.276883 -4.03023,-2.507279 -1.931518,-1.230398 -3.578626,-2.237085 -3.66024,-2.237085 -0.171234,0 -1.021976,0.527209 -4.833155,2.995125 -1.5125,0.979415 -2.8724954,1.857939 -3.0222119,1.952274 -0.2525246,0.159115 -0.4288126,0.06961 -2.4375,-1.237604 z M 25.473797,21.379325 c 0,-3.815358 -0.01851,-4.18389 -0.21875,-4.354379 -0.231565,-0.197164 -5.4205,-3.557449 -6.757093,-4.375804 -0.433588,-0.265473 -0.841401,-0.449887 -0.90625,-0.409808 -0.06996,0.04324 -0.117907,1.723602 -0.117907,4.132183 v 4.059311 l 2.53125,1.655392 c 4.608591,3.013933 5.280417,3.445582 5.375,3.453441 0.05156,0.0043 0.09375,-1.867868 0.09375,-4.160336 z m -16.25,-0.30267 v -4.220797 l 0.71875,-0.42725 c 1.277666,-0.759491 6.20219,-4.018805 6.765337,-4.477664 0.371522,-0.30272 0.596122,-0.408633 0.701243,-0.330679 1.078499,0.799766 6.94939,4.600108 7.782291,5.037627 0.331948,0.174371 0.502209,0.09886 2.129264,-0.944392 3.573746,-2.29144 6.031316,-3.969045 5.991287,-4.089817 -0.05607,-0.16916 -3.200322,-2.2745769 -5.838172,-3.9092844 -1.065625,-0.6603809 -2.078125,-1.3045421 -2.25,-1.4314694 -1.329879,-0.9820971 -7.306095,-4.918916 -7.691686,-5.0668813 -0.08689,-0.033344 -0.852749,0.3731688 -1.701902,0.9033627 -1.458162,0.9104481 -6.2239081,4.0135147 -6.3545445,4.1375635 -0.033348,0.031666 0.079152,0.1649771 0.25,0.2962464 C 10.094901,6.8369196 9.9009862,6.8825967 9.5049589,6.6052082 9.2423357,6.4212598 9.0833891,6.5083642 5.8208955,8.6241111 1.7234205,11.281349 1.3366691,11.5517 1.4260192,11.696272 c 0.038115,0.06167 0.00742,0.186693 -0.068214,0.277825 -0.095321,0.114855 -0.127388,1.40761 -0.1045111,4.213274 l 0.033003,4.04758 1.5,0.9945 c 3.0419757,2.016829 6.2364914,4.068 6.335545,4.068 0.056075,0 0.101955,-1.899359 0.1019549,-4.220796 z"
         id="path132"
         inkscape:connector-curvature="0"
         transform="translate(4.1943224,355.5444)" />
    </g>
    <path
       style="stroke-width:0.125;fill:#aa0000"
       d="M 4.7069995,24.173458 0.161297,21.198728 0.13041766,16.27934 0.09953831,11.359951 8.3092515,5.9849508 C 12.824593,3.0287008 16.719739,0.4894767 16.965131,0.34223051 l 0.446166,-0.26772032 8.625,5.64793191 8.625,5.6479319 0.03268,4.874932 0.03268,4.874931 -4.58558,2.994858 c -2.522068,1.647171 -4.640593,2.977957 -4.707831,2.957305 -0.06724,-0.02065 -1.876704,-1.187842 -4.021034,-2.59375 -2.144329,-1.40591 -3.96043,-2.556199 -4.035781,-2.556199 -0.07535,0 -1.476455,0.880597 -3.113565,1.956882 -1.63711,1.076285 -3.434123,2.252075 -3.993362,2.612868 l -1.0167971,0.655986 z m 20.7663285,-2.782257 -4.69e-4,-4.15625 -3.864663,-2.53125 c -2.125564,-1.392188 -3.925353,-2.53125 -3.99953,-2.53125 -0.09382,0 -0.133705,1.245862 -0.131047,4.09375 l 0.0038,4.09375 3.964928,2.590712 c 2.18071,1.424893 3.97899,2.59208 3.996177,2.59375 0.01719,0.0017 0.03104,-1.867275 0.03078,-4.153212 z M 9.1942321,21.145242 9.161297,16.993035 5.298514,14.457742 c -2.1245306,-1.39441 -3.9104681,-2.535291 -3.96875,-2.535291 -0.058282,0 -0.105967,1.847032 -0.105967,4.104517 v 4.104517 l 3.90625,2.571997 c 2.1484375,1.4146 3.9491957,2.576941 4.0016851,2.582984 0.052489,0.006 0.080614,-1.857509 0.0625,-4.141224 z m 4.0641699,-6.910291 c 2.108289,-1.375 3.83486,-2.535452 3.836824,-2.578781 0.0049,-0.108132 -7.7718038,-5.1783134 -7.887767,-5.1425905 -0.07899,0.024333 -7.7290734,4.9999015 -7.8324348,5.0941685 -0.069825,0.06368 7.7875655,5.17568 7.9181984,5.15156 0.072559,-0.0134 1.8568894,-1.149357 3.9651794,-2.524357 z m 16.274311,-0.02021 c 2.092139,-1.363888 3.806633,-2.513913 3.809986,-2.555612 0.0033,-0.0417 -1.761243,-1.231045 -3.921328,-2.6429902 l -3.927425,-2.567173 -3.947194,2.58049 c -2.170956,1.4192692 -3.946089,2.6086152 -3.944739,2.6429902 0.0066,0.168233 7.710505,5.105341 7.905548,5.066337 0.121696,-0.02434 1.933015,-1.160155 4.025152,-2.524042 z M 22.692547,8.055137 C 24.084734,7.1424557 25.220919,6.3595442 25.217403,6.3153337 25.210266,6.2255458 17.760182,1.3491136 17.470397,1.244549 17.302384,1.1839241 9.5842941,6.1331978 9.5503226,6.3233458 9.5426089,6.366524 11.300088,7.5553811 13.455833,8.9652506 l 3.919536,2.5633994 1.392964,-0.907047 c 0.76613,-0.498875 2.532026,-1.6537849 3.924214,-2.566466 z"
       id="path34"
       inkscape:connector-curvature="0"
       transform="translate(4.1943224,354.54445)" />
    <path
       style="fill:#550000;stroke-width:0.125"
       d="M 4.8065654,24.183228 C 2.411463,22.611471 0.40579651,21.276992 0.34952884,21.21772 0.29326116,21.158447 0.2278904,18.918813 0.20426049,16.240757 L 0.161297,11.371564 1.421396,10.553257 c 0.6930545,-0.450068 4.5595927,-2.9747725 8.592307,-5.6104537 4.032715,-2.6356812 7.382474,-4.77318117 7.443909,-4.75000001 0.06144,0.0231812 3.941001,2.54527251 8.621257,5.60464751 l 8.509558,5.5625002 0.0057,3.4375 c 0.0032,1.890625 0.04199,4.066359 0.08628,4.834964 l 0.08053,1.397463 -2.414477,1.58157 c -2.911743,1.907297 -6.341311,4.10157 -6.685214,4.27727 -0.212595,0.108615 -0.838029,-0.253355 -4.180161,-2.419271 -2.161586,-1.400847 -4.006971,-2.546996 -4.100853,-2.546996 -0.176723,0 -1.026526,0.533335 -5.452932,3.422254 -1.434922,0.936511 -2.6442968,1.701287 -2.6874995,1.699505 -0.043203,-0.0018 -2.0381798,-1.289224 -4.4332821,-2.860982 z m 20.6376436,-2.848207 -0.03291,-4.212429 -3.809945,-2.475071 c -2.09547,-1.361289 -3.882166,-2.47507 -3.970435,-2.47507 -0.12809,0 -0.153841,0.837006 -0.127555,4.145946 l 0.03294,4.145945 3.875,2.533345 c 2.13125,1.39334 3.917936,2.53704 3.970412,2.541555 0.05248,0.0045 0.0806,-1.887385 0.0625,-4.204221 z M 9.1957651,21.047393 c -0.018957,-2.337531 0.010105,-4.250031 0.064584,-4.25 0.1240274,7.3e-5 2.1643299,-1.29565 5.3744779,-3.413135 1.681614,-1.109229 2.452242,-1.687071 2.407037,-1.804875 -0.04981,-0.129809 0.0039,-0.151405 0.213969,-0.08608 0.154255,0.04796 0.301293,0.142246 0.326749,0.209529 0.05322,0.140662 3.491271,2.404242 6.109747,4.022599 l 1.781033,1.100773 0.843967,-0.504536 c 0.876647,-0.524072 6.267035,-4.043079 6.793772,-4.435177 l 0.300196,-0.223464 -0.3125,-0.244938 c -1.075598,-0.843058 -7.481489,-4.9252243 -7.709533,-4.9129142 -0.165537,0.00894 -0.249301,-0.04455 -0.213968,-0.136626 0.05396,-0.1406101 -2.1654,-1.6600611 -6.181918,-4.2323611 l -1.542919,-0.9881321 -1.082081,0.658226 c -1.45165,0.8830332 -5.696546,3.623781 -6.3775335,4.1177011 L 9.4453911,6.3195961 9.897602,6.6413488 C 10.499603,7.069679 10.376523,7.1526955 9.7199585,6.7611677 L 9.198895,6.450443 6.367596,8.2895671 C 1.0943213,11.714923 1.3229034,11.553135 1.4834121,11.746536 c 0.1152981,0.138926 0.1033531,0.175915 -0.056809,0.175915 -0.1829739,0 -0.2028056,0.403056 -0.2028056,4.121776 v 4.121775 l 1.15625,0.778795 c 2.3382256,1.574918 6.6425831,4.352654 6.744836,4.352654 0.057943,0 0.08984,-1.912526 0.070882,-4.250058 z"
       id="path36"
       inkscape:connector-curvature="0"
       transform="translate(4.1943224,354.54445)" />
    <path
       style="fill:#ff8080;stroke-width:0.125"
       d="M 13.505816,8.8997343 C 11.426552,7.5227292 9.7531021,6.3511613 9.7870391,6.2962501 9.8439043,6.2042402 15.967728,2.1850012 16.980895,1.5747189 l 0.444597,-0.267804 3.841437,2.5123278 3.841437,2.5123278 -1.161034,0.7760203 c -2.145029,1.4337094 -6.5737,4.3149532 -6.617581,4.3053242 -0.0239,-0.0052 -1.74467,-1.136176 -3.823935,-2.5131807 z"
       id="path38"
       inkscape:connector-curvature="0"
       transform="translate(4.1943224,354.54445)" />
    <path
       style="fill:#ff8080;stroke-width:0.125"
       d="M 5.5109502,14.258839 C 3.5032595,12.939451 1.8009761,11.800167 1.7280982,11.727099 1.6346309,11.633387 2.6895844,10.878437 5.3088892,9.1645988 7.3512021,7.8282925 9.0976069,6.7163914 9.1897886,6.6937077 c 0.092182,-0.022684 1.8766124,1.0741913 3.9654004,2.4375 2.876774,1.8776103 3.762428,2.5136413 3.651953,2.6226443 -0.227299,0.22427 -7.4477573,4.919517 -7.5526135,4.911237 -0.051277,-0.004 -1.7358875,-1.086861 -3.7435783,-2.40625 z"
       id="path40"
       inkscape:connector-curvature="0"
       transform="translate(4.1943224,354.54445)" />
    <path
       style="fill:#ff8080;stroke-width:0.125"
       d="m 5.1372091,22.574287 -3.7740878,-2.464336 -0.00716,-4.045626 -0.00716,-4.045627 0.28125,0.182151 c 0.1546875,0.100184 1.8984375,1.238657 3.875,2.529941 l 3.59375,2.34779 v 3.984435 c 0,2.19144 -0.042187,3.98245 -0.09375,3.980022 -0.051562,-0.0024 -1.7920895,-1.113365 -3.8678379,-2.46875 z"
       id="path42"
       inkscape:connector-curvature="0"
       transform="translate(4.1943224,354.54445)" />
    <path
       style="fill:#ff8080;stroke-width:0.125"
       d="m 21.473797,22.815982 -3.8125,-2.494115 -0.03298,-4.012208 c -0.01814,-2.206715 -0.0061,-4.012208 0.0267,-4.012208 0.08623,0 7.35086,4.74513 7.539317,4.924548 0.122303,0.116438 0.150569,1.047902 0.125,4.119279 l -0.03304,3.968819 z"
       id="path44"
       inkscape:connector-curvature="0"
       transform="translate(4.1943224,354.54445)" />
    <path
       style="fill:#ac9393;stroke-width:0.125"
       d="m 22.030651,14.467567 c -1.853145,-1.212687 -3.552167,-2.315118 -3.775604,-2.449847 -0.223438,-0.13473 -0.40625,-0.287886 -0.40625,-0.340346 0,-0.128401 7.476832,-5.0061757 7.664611,-5.0002794 0.197573,0.0062 7.501778,4.8070214 7.554559,4.9653674 0.02271,0.06813 -0.481376,0.460685 -1.12019,0.872348 -0.638814,0.411663 -2.334476,1.51554 -3.768138,2.45306 -1.433662,0.937519 -2.645578,1.704581 -2.693146,1.704581 -0.04757,0 -1.602697,-0.992198 -3.455842,-2.204884 z"
       id="path46"
       inkscape:connector-curvature="0"
       transform="translate(4.1943224,354.54445)" />
    <path
       style="fill:#ac9393;stroke-width:0.125"
       d="M 14.40506,9.4422271 C 11.06313,7.214707 9.973797,6.4433471 9.973797,6.3044361 c 0,-0.057961 1.279687,-0.9461794 2.84375,-1.973819 3.963362,-2.6040574 4.514038,-2.9415353 4.689636,-2.8740136 0.213599,0.082134 7.115845,4.584868 7.317529,4.7736466 0.168324,0.1575544 -0.01874,0.2882331 -5.584496,3.9012679 -0.987845,0.641263 -1.85972,1.161863 -1.9375,1.156888 -0.07778,-0.005 -1.381726,-0.835755 -2.897656,-1.8461789 z"
       id="path48"
       inkscape:connector-curvature="0"
       transform="translate(4.1943224,354.54445)" />
    <path
       style="fill:#ac9393;stroke-width:0.125"
       d="M 6.9562641,15.134415 C 3.4551541,12.854568 1.848797,11.764952 1.848797,11.669944 c 0,-0.201886 7.055022,-4.8724932 7.3599735,-4.8724932 0.2008519,0 2.2021915,1.2377499 4.7650265,2.9469822 2.763119,1.842807 2.834092,1.896755 2.680781,2.037682 -0.440062,0.404517 -7.2050421,4.765336 -7.3925103,4.765336 -0.07471,0 -1.1123217,-0.635866 -2.3058036,-1.413036 z"
       id="path50"
       inkscape:connector-curvature="0"
       transform="translate(4.1943224,354.54445)" />
    <path
       style="fill:#ac9393;stroke-width:0.125"
       d="m 7.536297,24.061943 c -0.75625,-0.480893 -2.44375,-1.571554 -3.75,-2.423689 l -2.375,-1.549338 -0.033006,-3.958233 c -0.018153,-2.177028 0.00398,-3.958232 0.04918,-3.958232 0.045202,0 1.7881354,1.110937 3.8731848,2.46875 l 3.7909988,2.46875 -0.012332,2.5625 c -0.00678,1.409375 -0.047363,3.170302 -0.090179,3.913172 l -0.077847,1.350672 z"
       id="path52"
       inkscape:connector-curvature="0"
       transform="translate(4.1943224,354.54445)" />
    <path
       style="fill:#ffd42a;stroke-width:0.125"
       d="m 21.473797,22.759697 -3.6875,-2.410658 -0.03302,-3.974584 -0.03302,-3.974583 0.470521,0.285169 c 0.258786,0.156843 1.947083,1.256285 3.751771,2.443205 l 3.28125,2.158035 v 3.943085 c 0,2.168697 -0.01406,3.942614 -0.03125,3.942037 -0.01719,-5.76e-4 -1.690625,-1.085844 -3.71875,-2.411706 z"
       id="path54"
       inkscape:connector-curvature="0"
       transform="translate(4.1943224,354.54445)" />
    <path
       style="fill:#ffd42a;stroke-width:0.125"
       d="m 21.665092,14.176601 c -1.991662,-1.296008 -3.637678,-2.405798 -3.657812,-2.4662 -0.05535,-0.166046 7.167607,-4.9129502 7.475615,-4.9129502 0.206475,0 0.606632,0.2492479 4.272152,2.6610153 1.770312,1.1647959 3.21875,2.1590909 3.21875,2.2095449 0,0.185079 -7.260424,4.884304 -7.52768,4.872204 -0.0879,-0.004 -1.789362,-1.067607 -3.781025,-2.363614 z"
       id="path56"
       inkscape:connector-curvature="0"
       transform="translate(4.1943224,354.54445)" />
    <path
       style="fill:#ffd42a;stroke-width:0.125"
       d="M 16.160282,10.553607 C 15.54209,10.150918 14.994109,9.8474915 14.942547,9.8793253 c -0.05156,0.031834 -0.09375,0.00853 -0.09375,-0.05179 0,-0.060319 -0.719314,-0.5937818 -1.598476,-1.185474 -2.10507,-1.4167512 -3.151524,-2.1924253 -3.151524,-2.3360371 0,-0.2324199 6.936252,-4.7585729 7.292432,-4.7585729 0.119097,0 0.762958,0.3475429 1.430804,0.7723175 2.570403,1.6348724 5.870833,3.8265079 5.946298,3.9486118 0.04343,0.070276 -0.412882,0.4628611 -1.014033,0.8724107 -1.38121,0.9409858 -5.161944,3.3844527 -5.906516,3.8173487 l -0.563516,0.327629 z"
       id="path58"
       inkscape:connector-curvature="0"
       transform="translate(4.1943224,354.54445)" />
    <path
       style="fill:#ffd42a;stroke-width:0.125"
       d="M 7.7094525,15.571433 C 5.1915131,13.98485 1.973797,11.802459 1.973797,11.68127 c 0,-0.189406 2.9522939,-2.228719 5.7996641,-4.0061494 l 1.436171,-0.8965094 0.6008325,0.3475967 c 1.7088864,0.9886338 6.7883324,4.3848571 6.7883324,4.5388211 0,0.06112 -0.267188,0.305776 -0.59375,0.543676 -0.534201,0.389166 -5.173784,3.384433 -6.2955945,4.064372 l -0.4518446,0.273867 z"
       id="path60"
       inkscape:connector-curvature="0"
       transform="translate(4.1943224,354.54445)" />
    <path
       style="fill:#ff00ff;stroke-width:0.125"
       d="m 5.0838595,22.455742 -3.5774374,-2.323904 -0.09034,-3.089959 c -0.079501,-2.719243 -0.02,-4.744428 0.1393935,-4.744428 0.028905,0 1.4145396,0.880385 3.0791878,1.956411 1.6646484,1.076026 3.3547316,2.158839 3.7557406,2.40625 l 0.7291074,0.449839 -0.077355,3.375 c -0.077375,3.375855 -0.142794,4.320304 -0.2980965,4.303597 -0.045519,-0.0049 -1.6926096,-1.05466 -3.6602004,-2.332806 z"
       id="path62"
       inkscape:connector-curvature="0"
       transform="translate(4.1943224,354.54445)" />
    <path
       style="fill:#ff00ff;stroke-width:0.125"
       d="m 23.973797,15.594706 c -0.721875,-0.453695 -2.340095,-1.500734 -3.596044,-2.326755 -1.971599,-1.296694 -2.261886,-1.528126 -2.125,-1.694159 0.188122,-0.228179 5.605606,-3.8233765 6.596044,-4.3773231 0.55613,-0.3110403 0.735271,-0.3587903 0.9375,-0.2498895 0.637205,0.3431362 7.0625,4.6434736 7.0625,4.7268066 0,0.208429 -7.054627,4.749698 -7.375,4.747503 -0.103125,-7.07e-4 -0.778125,-0.372489 -1.5,-0.826183 z"
       id="path64"
       inkscape:connector-curvature="0"
       transform="translate(4.1943224,354.54445)" />
    <path
       style="fill:#ff00ff;stroke-width:0.125"
       d="m 21.461658,22.70583 -3.573932,-2.328615 -0.08559,-3.932086 c -0.04708,-2.162647 -0.0699,-3.945182 -0.05072,-3.961188 0.01918,-0.01601 1.694255,1.05606 3.72238,2.382369 l 3.6875,2.411472 0.03311,3.61891 c 0.01821,1.990401 -0.01007,3.73565 -0.06285,3.878332 -0.08807,0.238067 -0.390161,0.06774 -3.669898,-2.069194 z"
       id="path66"
       inkscape:connector-curvature="0"
       transform="translate(4.1943224,354.54445)" />
    <path
       style="fill:#ff00ff;stroke-width:0.125"
       d="M 6.9623004,15.031029 C 4.3641779,13.369687 2.098797,11.799315 2.098797,11.659627 c 0,-0.241708 6.744391,-4.7356957 7.1086486,-4.7367029 0.2403045,-6.645e-4 1.3151374,0.6598099 4.2038514,2.5832249 3.049024,2.030155 3.125369,2.088452 3.000222,2.290941 -0.165845,0.268343 -6.901276,4.625361 -7.1502571,4.625361 -0.067627,0 -1.1021597,-0.62614 -2.2989615,-1.391422 z"
       id="path68"
       inkscape:connector-curvature="0"
       transform="translate(4.1943224,354.54445)" />
    <path
       style="fill:#0000ff;stroke-width:0.125"
       d="M 16.534628,10.754414 C 16.191796,10.524494 15.675437,10.201056 15.387164,10.035664 14.6127,9.5913278 10.551175,6.7288012 10.348232,6.4842703 10.195052,6.2996996 10.211221,6.2444901 10.479958,6.0344722 c 0.599747,-0.4687 4.224958,-2.8643265 5.554335,-3.6704379 l 1.351537,-0.819548 0.700233,0.3933695 c 0.752905,0.4229587 5.559656,3.5594187 6.232549,4.0668092 l 0.407315,0.3071335 -0.344815,0.2856948 c -0.849574,0.7039105 -6.845402,4.5749577 -7.086108,4.5749577 -0.07537,0 -0.417543,-0.188117 -0.760376,-0.418037 z"
       id="path70"
       inkscape:connector-curvature="0"
       transform="translate(4.1943224,354.54445)" />
    <path
       style="fill:#0000ff;stroke-width:0.125"
       d="M 6.786297,14.841767 C 3.8371482,12.947174 2.2068077,11.785941 2.2622626,11.619459 2.3807524,11.263739 8.8188861,7.0474508 9.2435692,7.0474508 c 0.2872365,0 1.2151318,0.5696611 4.4902008,2.75666 1.447202,0.9664002 2.610557,1.8243102 2.585233,1.9064662 -0.0988,0.320513 -6.7004063,4.591486 -7.0819821,4.581754 C 9.1266227,16.289516 8.023797,15.636762 6.786297,14.841767 Z"
       id="path72"
       inkscape:connector-curvature="0"
       transform="translate(4.1943224,354.54445)" />
    <path
       style="fill:#0000ff;stroke-width:0.125"
       d="M 5.8945227,22.908127 C 4.3912486,21.937749 2.8173481,20.925015 2.3969663,20.657607 1.6786945,20.20071 1.6278497,20.136495 1.5532163,19.591985 1.434462,18.725578 1.4573579,12.422451 1.5792593,12.422451 c 0.058004,0 1.7595668,1.060181 3.7812501,2.355957 l 3.6757876,2.355958 -0.034084,2.175292 c -0.048643,3.104489 -0.1656609,5.362793 -0.277883,5.362793 -0.05312,0 -1.3265335,-0.793946 -2.8298073,-1.764324 z"
       id="path74"
       inkscape:connector-curvature="0"
       transform="translate(4.1943224,354.54445)" />
    <path
       style="fill:#0000ff;stroke-width:0.125"
       d="m 23.900684,24.192578 c -0.544163,-0.332679 -2.086262,-1.320919 -3.426887,-2.196089 l -2.4375,-1.591216 -0.07914,-0.772661 c -0.09465,-0.924107 -0.13501,-6.960161 -0.04654,-6.960161 0.06569,0 2.305844,1.432373 5.344426,3.417265 l 1.84375,1.204392 v 3.751672 c 0,2.063419 -0.04696,3.751671 -0.104363,3.751671 -0.0574,0 -0.549587,-0.272193 -1.09375,-0.604873 z"
       id="path76"
       inkscape:connector-curvature="0"
       transform="translate(4.1943224,354.54445)" />
    <path
       style="fill:#808000;stroke-width:0.125"
       d="m 24.344847,15.740584 c -2.004997,-1.195989 -5.93355,-3.889465 -5.93355,-4.068133 0,-0.264503 6.306289,-4.4691943 7.01827,-4.6794025 0.208628,-0.061596 1.049276,0.4413055 3.78125,2.2620601 1.932139,1.2876954 3.51298,2.3828594 3.51298,2.4336974 0,0.233676 -6.880036,4.608645 -7.247512,4.608645 -0.108838,0 -0.617985,-0.25059 -1.131438,-0.556867 z"
       id="path78"
       inkscape:connector-curvature="0"
       transform="translate(4.1943224,354.54445)" />
    <path
       style="fill:#808000;stroke-width:0.125"
       d="M 5.223797,22.424183 C 3.401922,21.257802 1.8275964,20.179802 1.7252956,20.028625 1.5711479,19.800832 1.5402139,19.148012 1.5446644,16.216653 c 0.00295,-1.945408 0.040185,-3.571921 0.082736,-3.614472 0.042551,-0.04255 0.8269601,0.395034 1.7431311,0.972411 0.916171,0.577377 2.5555705,1.609033 3.64311,2.292568 l 1.9773446,1.242791 -0.07486,3.25 c -0.073307,3.182589 -0.1459098,4.188798 -0.3020555,4.186212 -0.042776,-7.09e-4 -1.568399,-0.9556 -3.3902736,-2.12198 z"
       id="path80"
       inkscape:connector-curvature="0"
       transform="translate(4.1943224,354.54445)" />
    <path
       style="fill:#808000;stroke-width:0.125"
       d="M 7.6556886,15.321695 C 6.3083826,14.488598 3.2115314,12.41305 2.6049583,11.936633 2.3396058,11.728218 2.321396,11.668583 2.4688545,11.490906 2.7071681,11.203756 6.8058696,8.4633335 8.1461525,7.6950224 L 9.256008,7.0588027 9.7391859,7.3053017 c 1.3780471,0.7030274 6.5051631,4.2276943 6.4435381,4.4296493 -0.10359,0.339478 -6.5018996,4.4375 -6.928343,4.4375 -0.1225548,0 -0.8419663,-0.382841 -1.5986924,-0.850756 z"
       id="path82"
       inkscape:connector-curvature="0"
       transform="translate(4.1943224,354.54445)" />
    <path
       style="fill:#808000;stroke-width:0.125"
       d=""
       id="path84"
       inkscape:connector-curvature="0"
       transform="translate(4.1943224,354.54445)" />
    <path
       style="fill:#808000;stroke-width:0.125"
       d="m 23.877976,24.119522 c -0.493253,-0.304111 -1.988509,-1.261293 -3.322791,-2.127071 -2.133867,-1.384607 -2.435323,-1.620926 -2.503677,-1.962696 -0.04274,-0.213705 -0.07771,-1.933954 -0.07771,-3.822776 v -3.434222 l 0.463981,0.273755 c 0.255189,0.150566 1.858314,1.179049 3.5625,2.285519 l 3.098519,2.011763 -4.57e-4,1.883078 c -5.76e-4,2.371137 -0.138042,5.445579 -0.243485,5.445579 -0.04403,0 -0.483625,-0.248818 -0.976879,-0.552929 z"
       id="path86"
       inkscape:connector-curvature="0"
       transform="translate(4.1943224,354.54445)" />
    <path
       style="fill:#ff0000;stroke-width:0.125"
       d="m 16.536297,10.704059 c -3.942925,-2.5894275 -6.1875,-4.1895628 -6.1875,-4.4110073 0,-0.1325697 5.29115,-3.6749959 6.452826,-4.3201681 l 0.640326,-0.3556247 0.797174,0.485771 c 1.452765,0.8852661 6.198424,4.0346404 6.281026,4.1682947 0.135549,0.2193224 -6.813438,4.7836084 -7.260067,4.7686124 -0.123082,-0.0041 -0.448785,-0.155278 -0.723785,-0.335878 z"
       id="path88"
       inkscape:connector-curvature="0"
       transform="translate(4.1943224,354.54445)" />
    <path
       style="fill:#ff0000;stroke-width:0.125"
       d="M 7.0904779,23.53587 C 6.3044284,23.045975 4.7829479,22.062077 3.7094101,21.349431 1.8601662,20.121847 1.7534221,20.028895 1.6795358,19.58183 c -0.1130706,-0.684158 -0.098646,-6.758557 0.016217,-6.829547 0.053326,-0.03296 0.5173884,0.195178 1.03125,0.506966 1.8461512,1.120164 5.9372643,3.702642 6.0797117,3.837763 0.1702341,0.161479 -0.00299,7.045509 -0.1817848,7.224306 -0.057899,0.0579 -0.7484027,-0.295552 -1.5344518,-0.785448 z"
       id="path90"
       inkscape:connector-curvature="0"
       transform="translate(4.1943224,354.54445)" />
    <path
       style="fill:#ff0000;stroke-width:0.125"
       d="M 7.680143,15.24351 C 6.1702995,14.327967 2.62795,11.945748 2.5223779,11.774929 2.483821,11.712543 2.5269827,11.571482 2.6182926,11.46146 2.8346857,11.200722 7.284032,8.2448828 8.3964874,7.6228249 L 9.2566779,7.1418275 9.7018895,7.3541342 c 1.2965495,0.6182816 6.4616465,4.2374388 6.3364895,4.4399468 -0.10679,0.172791 -3.563415,2.473362 -5.138663,3.420059 -0.762619,0.458321 -1.500699,0.833311 -1.6401776,0.833311 -0.1394787,0 -0.8502067,-0.361773 -1.5793954,-0.803941 z"
       id="path92"
       inkscape:connector-curvature="0"
       transform="translate(4.1943224,354.54445)" />
    <path
       style="fill:#ff0000;stroke-width:0.125"
       d="m 23.694731,15.260039 c -1.500088,-0.920663 -4.243333,-2.788855 -4.878973,-3.322657 l -0.354339,-0.29757 0.849939,-0.626733 c 1.13658,-0.8381 4.542978,-3.081479 5.458643,-3.5949434 l 0.733705,-0.4114288 0.453795,0.2390987 c 0.683337,0.3600408 6.320993,4.1288195 6.501392,4.3461875 0.134409,0.161953 -0.127371,0.376909 -1.820305,1.494715 -2.76126,1.823197 -4.90014,3.086852 -5.212541,3.079581 -0.145612,-0.0034 -0.924705,-0.411201 -1.731316,-0.90625 z"
       id="path94"
       inkscape:connector-curvature="0"
       transform="translate(4.1943224,354.54445)" />
    <path
       style="fill:#800000;stroke-width:0.125"
       d="m 21.844471,22.745241 c -1.544496,-0.991215 -3.017655,-1.989653 -3.273686,-2.21875 l -0.465513,-0.41654 -0.08433,-3.59375 c -0.0494,-2.105332 -0.0378,-3.593029 0.02801,-3.592008 0.06179,9.58e-4 1.659213,1.002089 3.549838,2.224735 l 3.4375,2.222993 -0.03349,2.681515 c -0.03671,2.93874 -0.127638,4.494015 -0.262747,4.494015 -0.04808,0 -1.35109,-0.810995 -2.895585,-1.80221 z"
       id="path96"
       inkscape:connector-curvature="0"
       transform="translate(4.1943224,354.54445)" />
    <path
       style="fill:#800000;stroke-width:0.125"
       d="M 7.723797,23.842658 C 7.276922,23.595633 5.7734491,22.641225 4.3827462,21.721752 2.5607469,20.517124 1.8380106,19.97104 1.7962741,19.767467 1.658816,19.097004 1.5906276,16.280986 1.6715473,14.616541 l 0.087803,-1.806033 0.4594439,0.234391 C 2.703845,13.292353 5.920339,15.27766 7.7829093,16.47922 l 1.1039865,0.712191 -0.088765,3.14677 c -0.048821,1.730723 -0.1277056,3.32831 -0.1752995,3.550192 l -0.086535,0.403423 z"
       id="path98"
       inkscape:connector-curvature="0"
       transform="translate(4.1943224,354.54445)" />
    <path
       style="fill:#800000;stroke-width:0.125"
       d="M 8.5239171,15.658526 C 7.6084389,15.174133 2.7894869,12.004866 2.6669422,11.806585 2.617625,11.726788 2.6523037,11.571095 2.744006,11.4606 2.9560507,11.205102 6.6836396,8.707066 8.1453331,7.8409118 L 9.2543692,7.1837315 9.8328331,7.4769394 c 1.4890409,0.7547549 6.1970489,4.1286376 6.0632689,4.3450986 -0.125421,0.202934 -4.624224,3.14253 -5.684685,3.714471 l -0.9498799,0.512302 z"
       id="path100"
       inkscape:connector-curvature="0"
       transform="translate(4.1943224,354.54445)" />
    <path
       style="fill:#800000;stroke-width:0.125"
       d="M 14.758423,9.4381856 C 12.155324,7.69945 10.473797,6.4707201 10.473797,6.3073118 c 0,-0.1150368 5.281581,-3.6778253 6.385667,-4.3075705 l 0.573167,-0.3269212 1.739333,1.1010953 c 2.685603,1.7001372 5.176833,3.3911259 5.176833,3.5139128 0,0.359242 -6.565738,4.6346228 -7.11743,4.6346228 -0.137949,0 -1.250774,-0.66792 -2.472944,-1.4842654 z"
       id="path102"
       inkscape:connector-curvature="0"
       transform="translate(4.1943224,354.54445)" />
    <path
       style="fill:#800000;stroke-width:0.125"
       d="m 24.036297,15.393184 c -1.671146,-0.995797 -4.364335,-2.823512 -5.435632,-3.688855 -0.03335,-0.02694 0.07915,-0.159436 0.25,-0.294443 0.609801,-0.481874 5.447369,-3.6812195 6.071344,-4.0153087 l 0.635713,-0.3403735 0.989287,0.6127919 c 2.124693,1.3160929 5.73864,3.8279403 5.773883,4.0130943 0.06525,0.342798 -5.983205,4.202505 -6.776978,4.324602 -0.300775,0.04627 -0.623256,-0.08454 -1.507617,-0.611508 z"
       id="path104"
       inkscape:connector-curvature="0"
       transform="translate(4.1943224,354.54445)" />
    <path
       style="fill:#ff5555;stroke-width:0.125"
       d="M 8.788217,15.768766 C 8.2242285,15.477326 4.9211297,13.370174 3.6032164,12.461089 2.6965165,11.835656 2.5745974,11.62907 2.942547,11.341618 4.2485334,10.321349 8.9881692,7.2974508 9.2813461,7.2974508 c 0.5258945,0 6.5695499,4.1232342 6.5668219,4.4801602 -0.0012,0.151343 -4.242943,2.938743 -5.874371,3.860218 l -0.6875,0.388319 z"
       id="path134"
       inkscape:connector-curvature="0"
       transform="translate(4.1943224,354.54445)" />
    <path
       style="fill:#ff5555;stroke-width:0.125"
       d="M 15.881633,10.119559 C 14.228276,9.0840993 11.623246,7.2687872 11.013196,6.726993 l -0.476899,-0.4235402 0.3125,-0.2511552 C 11.268483,5.714997 16.125679,2.4738167 16.862691,2.0392587 l 0.584981,-0.3449171 2.606041,1.6873316 c 2.944828,1.906685 4.170084,2.7588541 4.170084,2.9003041 0,0.1674288 -0.517718,0.5816387 -1.9375,1.5501342 -2.133358,1.4552561 -4.834386,3.0948975 -5.089595,3.0896055 -0.01947,-4.04e-4 -0.611254,-0.361375 -1.315069,-0.802158 z"
       id="path136"
       inkscape:connector-curvature="0"
       transform="translate(4.1943224,354.54445)" />
    <path
       style="fill:#ff5555;stroke-width:0.125"
       d="m 23.672396,15.113812 c -1.354077,-0.821088 -3.961936,-2.572961 -4.625013,-3.106928 -0.222852,-0.17946 -0.327593,-0.351822 -0.270215,-0.444662 0.107764,-0.174366 4.872927,-3.370693 6.036748,-4.0492683 l 0.777619,-0.453397 2.972381,1.9859943 c 1.63481,1.092297 3.14083,2.124626 3.346711,2.294064 0.369864,0.304394 0.371507,0.311188 0.137809,0.569423 -0.456443,0.504363 -4.220689,2.951472 -5.66908,3.685428 -0.355987,0.180391 -0.810636,0.327985 -1.010332,0.327985 -0.225934,0 -0.866811,-0.305452 -1.696628,-0.808639 z"
       id="path138"
       inkscape:connector-curvature="0"
       transform="translate(4.1943224,354.54445)" />
    <path
       style="fill:#ff5555;stroke-width:0.125"
       d="m 22.721984,23.261609 c -2.038921,-1.308524 -3.928672,-2.591013 -4.327045,-2.936569 -0.257547,-0.223402 -0.267884,-0.345148 -0.3125,-3.680616 -0.02538,-1.897264 -0.0077,-3.488333 0.03921,-3.53571 0.07504,-0.07573 1.715666,0.933847 5.695298,3.504686 l 1.155653,0.746551 -0.01264,2.375 c -0.01516,2.848494 -0.127773,4.590091 -0.30048,4.646955 -0.06975,0.02296 -0.941622,-0.481169 -1.9375,-1.120297 z"
       id="path140"
       inkscape:connector-curvature="0"
       transform="translate(4.1943224,354.54445)" />
    <path
       style="fill:#d40000;stroke-width:0.125"
       d="M 7.1844231,23.477329 C 5.6723896,22.542468 2.6181081,20.507645 2.161297,20.130824 L 1.786297,19.821487 1.7477,16.371969 c -0.027238,-2.434289 0.00159,-3.449518 0.097944,-3.449518 0.1665837,0 1.9659967,1.07745 4.8614207,2.910914 l 2.1707675,1.374591 -0.079773,2.325998 c -0.1212923,3.536585 -0.2094861,4.639452 -0.3703764,4.63157 -0.077762,-0.0038 -0.6372284,-0.313497 -1.2432597,-0.688195 z"
       id="path142"
       inkscape:connector-curvature="0"
       transform="translate(4.1943224,354.54445)" />
    <path
       style="fill:#d40000;stroke-width:0.125"
       d="m 23.504262,23.676264 c -1.846153,-1.110354 -5.125756,-3.371397 -5.216863,-3.59664 -0.04887,-0.12082 -0.119628,-1.733576 -0.157242,-3.583901 -0.06353,-3.125169 -0.05336,-3.358461 0.143127,-3.283063 0.237076,0.09098 3.148189,1.903308 5.301202,3.300299 l 1.413189,0.916954 -0.07384,2.652519 c -0.08264,2.968692 -0.16951,4.215134 -0.293734,4.21478 -0.04609,-1.25e-4 -0.548217,-0.279558 -1.115836,-0.620948 z"
       id="path144"
       inkscape:connector-curvature="0"
       transform="translate(4.1943224,354.54445)" />
    <path
       style="fill:#d40000;stroke-width:0.125"
       d="m 24.511,15.491139 c -0.902024,-0.435718 -5.238475,-3.271243 -5.518122,-3.608197 -0.09108,-0.109747 -0.127769,-0.260758 -0.08153,-0.33558 0.09041,-0.146285 5.774752,-3.9443102 6.34729,-4.2409767 0.338621,-0.1754605 0.398606,-0.1423659 3.449522,1.9031693 1.7077,1.1449544 3.176959,2.1685514 3.265022,2.2746604 0.132516,0.159671 0.119436,0.238407 -0.07589,0.456793 -0.28629,0.320094 -3.784186,2.641405 -4.947291,3.283174 -1.319269,0.727936 -1.454131,0.742697 -2.439007,0.266957 z"
       id="path146"
       inkscape:connector-curvature="0"
       transform="translate(4.1943224,354.54445)" />
    <path
       style="fill:#d40000;stroke-width:0.125"
       d=""
       id="path148"
       inkscape:connector-curvature="0"
       transform="translate(4.1943224,354.54445)" />
    <path
       style="fill:#d40000;stroke-width:0.125"
       d="M 8.278405,15.404252 C 6.9303712,14.598643 3.4432414,12.301695 3.130047,12.013064 c -0.1546875,-0.142555 -0.28125,-0.32932 -0.28125,-0.415033 0,-0.175366 2.587395,-1.9541733 4.8946915,-3.3650494 l 1.526411,-0.9333767 0.6956987,0.385403 c 1.7176538,0.9515451 5.6077138,3.7115831 5.7205958,4.0588211 0.06637,0.204166 -6.0352501,4.178622 -6.4150599,4.178622 -0.069092,0 -0.5158197,-0.23319 -0.9927291,-0.518199 z"
       id="path150"
       inkscape:connector-curvature="0"
       transform="translate(4.1943224,354.54445)" />
    <path
       style="fill:#ff5555;stroke-width:0.125"
       d="M 14.384863,9.0538957 C 12.946949,8.0949403 11.520909,7.0867842 11.215886,6.8135487 10.724879,6.373713 10.682793,6.2957446 10.848797,6.1334793 11.043018,5.9436322 16.358547,2.392691 17.056164,1.9867622 L 17.45103,1.7569976 18.681164,2.549488 c 2.498526,1.609629 4.987043,3.2805701 5.222249,3.5065356 0.239488,0.230079 0.239488,0.2355427 0,0.5033696 -0.308574,0.3450869 -4.368664,3.048897 -5.593855,3.7252168 -0.510971,0.282063 -1.014823,0.512841 -1.119672,0.512841 -0.104848,0 -1.367108,-0.7846 -2.805023,-1.7435553 z"
       id="path152"
       inkscape:connector-curvature="0"
       transform="translate(4.1943224,354.54445)" />
    <path
       style="fill:#ff5555;stroke-width:0.125"
       d="m 24.661297,15.497261 c -1.490331,-0.709987 -5.70723,-3.560062 -5.659092,-3.82481 0.01875,-0.103125 1.452699,-1.136214 3.186551,-2.2957525 2.613105,-1.7475514 3.206029,-2.0948075 3.465565,-2.0296679 0.325336,0.081654 5.176719,3.2913874 5.944476,3.9329374 l 0.4375,0.365581 -0.25,0.283467 c -0.1375,0.155907 -1.171492,0.893036 -2.297761,1.638065 -2.049484,1.355736 -3.620968,2.231442 -4.000284,2.229149 -0.111075,-6.72e-4 -0.483205,-0.135208 -0.826955,-0.298969 z"
       id="path154"
       inkscape:connector-curvature="0"
       transform="translate(4.1943224,354.54445)" />
    <path
       style="fill:#ff5555;stroke-width:0.125"
       d="m 22.839683,23.197726 c -1.371199,-0.865768 -3.032823,-1.994297 -4.121796,-2.799409 -0.265218,-0.196085 -0.375982,-0.400372 -0.421389,-0.777186 -0.126657,-1.051097 -0.195506,-6.016353 -0.08577,-6.18584 0.130179,-0.201067 0.02886,-0.258571 4.096839,2.325234 l 2.646268,1.680797 -0.06707,2.146814 c -0.09726,3.112941 -0.206606,4.495423 -0.359576,4.546025 -0.07376,0.0244 -0.833137,-0.396995 -1.6875,-0.936435 z"
       id="path156"
       inkscape:connector-curvature="0"
       transform="translate(4.1943224,354.54445)" />
    <path
       style="fill:#ff5555;stroke-width:0.125"
       d="M 7.9586006,15.134454 C 6.169899,14.048007 3.3335603,12.133393 3.0616954,11.828895 2.8421813,11.583032 2.8506755,11.567399 3.4366954,11.138708 4.3128957,10.497742 6.8690474,8.8145287 8.125985,8.0508331 9.1618706,7.4214452 9.234776,7.3966684 9.6025744,7.5490155 10.458716,7.903641 14.99166,11.029012 15.448868,11.579913 c 0.132875,0.160105 0.08301,0.249347 -0.314846,0.56348 -0.611652,0.48294 -4.264336,2.871046 -5.1754214,3.383666 l -0.7026964,0.39537 z"
       id="path158"
       inkscape:connector-curvature="0"
       transform="translate(4.1943224,354.54445)" />
    <path
       style="fill:#ff8080;stroke-width:0.125"
       d="M 8.0710192,24.057867 C 8.051922,24.017763 7.7691095,23.850572 7.442547,23.686331 7.1159845,23.52209 6.848797,23.339277 6.848797,23.280081 c 0,-0.0592 -0.084375,-0.10763 -0.1875,-0.10763 -0.103125,0 -0.1875,-0.05625 -0.1875,-0.125 0,-0.06875 -0.084375,-0.125 -0.1875,-0.125 -0.103125,0 -0.1875,-0.05957 -0.1875,-0.132377 0,-0.07281 -0.056647,-0.09737 -0.1258829,-0.05458 -0.069235,0.04279 -0.1595047,-0.0098 -0.2005981,-0.116904 -0.041093,-0.107088 -0.125071,-0.163584 -0.1866171,-0.125546 -0.061546,0.03804 -0.1119019,0.0096 -0.1119019,-0.06322 0,-0.07281 -0.084375,-0.132377 -0.1875,-0.132377 -0.103125,0 -0.1875,-0.05625 -0.1875,-0.125 0,-0.06875 -0.084375,-0.125 -0.1875,-0.125 -0.103125,0 -0.1875,-0.05625 -0.1875,-0.125 0,-0.06875 -0.084375,-0.125 -0.1875,-0.125 -0.103125,0 -0.1875,-0.05625 -0.1875,-0.125 0,-0.06875 -0.084375,-0.125 -0.1875,-0.125 -0.103125,0 -0.1875,-0.05957 -0.1875,-0.132377 0,-0.07281 -0.056647,-0.09737 -0.1258829,-0.05458 -0.069236,0.04279 -0.1595047,-0.0098 -0.2005981,-0.116904 -0.041093,-0.107088 -0.1254684,-0.163338 -0.1875,-0.125 -0.062032,0.03834 -0.1464066,-0.01791 -0.1875,-0.125 C 3.2312226,20.886504 3.1510936,20.82763 3.0942516,20.86276 3.0374096,20.89789 2.9015955,20.79913 2.7924426,20.643292 2.6832896,20.487454 2.579805,20.388076 2.5624768,20.422451 2.5451486,20.456826 2.3729295,20.369826 2.1797677,20.229117 1.8355826,19.978396 1.8276721,19.944674 1.783909,18.541617 1.7305265,16.830155 1.7140895,13.62302 1.7562313,13.141201 1.784235,12.821026 1.973797,12.63686 1.973797,12.929828 c 0,0.07281 0.051446,0.100582 0.1143237,0.06172 0.062878,-0.03886 0.1331906,-0.02812 0.15625,0.02387 0.02306,0.05199 0.3091138,0.233979 0.6356763,0.404418 0.3265625,0.170439 0.59375,0.346691 0.59375,0.391671 0,0.04498 0.098438,0.117366 0.21875,0.160859 0.1203125,0.04349 0.3324551,0.14849 0.471428,0.233328 0.5971189,0.364523 3.0674377,1.92341 3.8554591,2.432974 l 0.858137,0.554905 -0.089601,2.520687 c -0.049281,1.386378 -0.088506,2.900835 -0.087168,3.36546 0.00139,0.481496 -0.046899,0.814283 -0.1122857,0.773873 -0.063095,-0.03899 -0.1147185,0.0074 -0.1147185,0.103143 0,0.167463 -0.3315498,0.250706 -0.4027778,0.101127 z"
       id="path160"
       inkscape:connector-curvature="0"
       transform="translate(4.1943224,354.54445)" />
    <path
       style="fill:#ff8080;stroke-width:0.125"
       d="m 23.036297,23.26246 c -1.41352,-0.88602 -3.691139,-2.432431 -4.24135,-2.879706 -0.474437,-0.385677 -0.546702,-0.948552 -0.560602,-4.366553 -0.0075,-1.853655 0.02983,-2.59375 0.13095,-2.59375 0.130609,0 2.106141,1.210558 5.171002,3.168665 l 1.25,0.798612 -0.0135,2.360111 c -0.01602,2.800173 -0.134851,4.297917 -0.340912,4.296878 -0.08007,-4.04e-4 -0.708085,-0.35332 -1.395585,-0.784257 z"
       id="path162"
       inkscape:connector-curvature="0"
       transform="translate(4.1943224,354.54445)" />
    <path
       style="fill:#ff8080;stroke-width:0.125"
       d="m 25.323436,15.812815 c -0.02043,-0.04536 -0.412857,-0.265816 -0.872068,-0.489907 -0.918504,-0.448221 -4.284677,-2.653618 -4.977571,-3.261127 l -0.4375,-0.383587 0.3125,-0.257086 c 0.907033,-0.746196 5.929007,-3.9986572 6.174139,-3.9986572 0.268695,0 4.962303,3.0158282 5.989642,3.8485812 l 0.476281,0.38607 -0.356165,0.317344 c -1.245056,1.10935 -6.184867,4.114588 -6.309258,3.838369 z"
       id="path164"
       inkscape:connector-curvature="0"
       transform="translate(4.1943224,354.54445)" />
    <path
       style="fill:#ff8080;stroke-width:0.125"
       d="M 14.387814,9.0613727 C 12.956979,8.1065298 11.533172,7.0983737 11.223797,6.8210258 10.72295,6.372028 10.681848,6.2960068 10.848797,6.1274416 c 0.457746,-0.4621778 6.445416,-4.3407343 6.627618,-4.2930874 0.236563,0.061863 4.94947,3.1101303 5.940686,3.8423841 0.374932,0.2769793 0.681696,0.5543083 0.681696,0.6162869 0,0.4036549 -6.275514,4.5044258 -6.893238,4.5044258 -0.118926,0 -1.386911,-0.781235 -2.817745,-1.7360783 z"
       id="path166"
       inkscape:connector-curvature="0"
       transform="translate(4.1943224,354.54445)" />
    <path
       style="fill:#ff8080;stroke-width:0.125"
       d="M 8.223797,15.262731 C 6.120985,13.93294 3.4950058,12.148639 3.2377713,11.874826 L 2.9524454,11.57111 3.6193712,11.081886 C 5.5807241,9.643134 8.9432109,7.5474508 9.2903106,7.5474508 c 0.340519,0 1.9955874,1.0059996 3.9606774,2.4074164 2.105106,1.5012718 2.290344,1.6730938 2.078673,1.9281418 -0.19513,0.235117 -3.75733,2.628016 -5.050635,3.392752 C 9.7937771,15.56269 9.3156521,15.792747 9.2165261,15.786998 9.1174001,15.781249 8.670672,15.545329 8.223797,15.262731 Z"
       id="path168"
       inkscape:connector-curvature="0"
       transform="translate(4.1943224,354.54445)" />
  </g>
</svg>
